<!-- icon666.com - MILLIONS vector ICONS FREE --><svg version="1.1" id="Layer_1" xmlns="http://www.w3.org/2000/svg" xmlns:xlink="http://www.w3.org/1999/xlink" x="0px" y="0px" viewBox="0 0 511.999 511.999" style="enable-background:new 0 0 511.999 511.999;" xml:space="preserve"><path id="SVGCleanerId_0" style="fill:#EFEFEF;" d="M403.768,502.747H108.229V292.94c0-50.714,41.112-91.826,91.826-91.826h111.888 c50.714,0,91.826,41.112,91.826,91.826L403.768,502.747L403.768,502.747z"></path><g><path id="SVGCleanerId_0_1_" style="fill:#EFEFEF;" d="M403.768,502.747H108.229V292.94c0-50.714,41.112-91.826,91.826-91.826 h111.888c50.714,0,91.826,41.112,91.826,91.826L403.768,502.747L403.768,502.747z"></path></g><path style="fill:#E0E0E3;" d="M363.582,298.867H148.416c-14.927,0-27.029,12.101-27.029,27.029v176.85h269.224v-176.85 C390.611,310.969,378.509,298.867,363.582,298.867z"></path><polygon style="fill:#00A5FF;" points="298.08,358.932 256.55,394.327 229.128,371.568 228.994,371.46 213.911,358.932 221.804,298.873 233.196,212.257 278.809,212.257 290.188,298.873 "></polygon><polygon style="fill:#0087FF;" points="298.08,358.932 256.55,394.327 229.128,371.568 228.994,371.46 213.911,358.932 221.804,298.873 290.188,298.873 "></polygon><path style="fill:#FFDAA7;" d="M363.581,116.834c0,3.714-0.185,7.391-0.555,11.017c-5.515,54.235-51.323,96.564-107.027,96.564 c-56.369,0-102.61-43.353-107.199-98.526c-0.259-2.985-0.382-6.008-0.382-9.056c0-5.317,0.395-10.524,1.135-15.607 c7.563-52.027,52.347-91.975,106.447-91.975c16.803,0,32.719,3.862,46.906,10.721c31.991,15.521,55.16,46.45,59.8,83.154 C363.296,107.618,363.581,112.196,363.581,116.834z"></path><path style="fill:#FFC373;" d="M363.581,116.834c0,3.714-0.185,7.391-0.555,11.017c-10.092,0.814-19.987,1.209-29.437,1.209 c-59.343,0-95.343-15.607-115.366-29.08c-8.932,6.391-19.838,11.967-32.67,16.692c-16.668,6.144-31.077,8.734-31.682,8.846 c-1.432,0.259-2.875,0.382-4.319,0.382c-0.247,0-0.506,0-0.752-0.013c-0.259-2.985-0.382-6.008-0.382-9.056 c0-5.317,0.395-10.524,1.135-15.607c7.563-52.025,52.347-91.974,106.447-91.974c16.803,0,32.719,3.862,46.906,10.721 c31.991,15.521,55.16,46.45,59.8,83.154C363.296,107.618,363.581,112.196,363.581,116.834z"></path><path style="fill:#A07852;" d="M362.701,103.132c-112.018,9.354-145.425-36.506-145.425-36.506 c-17.059,25.587-67.723,34.601-67.723,34.601c7.563-52.03,52.342-91.975,106.446-91.975c16.803,0,32.724,3.866,46.911,10.719 C334.895,35.495,358.066,66.427,362.701,103.132z"></path><rect x="148.416" y="325.893" style="fill:#C7C5CC;" width="215.165" height="123.852"></rect><rect x="148.416" y="417.04" style="fill:#ADACB2;" width="215.165" height="32.716"></rect><rect x="26.247" y="449.755" style="fill:#A07852;" width="459.494" height="52.996"></rect><rect x="26.247" y="476.254" style="fill:#896746;" width="459.494" height="26.499"></rect><circle style="fill:#30D8B8;" cx="424.05" cy="417.04" r="32.716"></circle><path style="fill:#00C6A5;" d="M456.765,417.04c0,18.062-14.644,32.706-32.706,32.706c-18.074,0-32.719-14.644-32.719-32.706 c0-4.602,0.95-8.994,2.664-12.955c5.021,11.621,16.581,19.752,30.053,19.752c13.46,0,25.02-8.13,30.029-19.752 C455.815,408.045,456.765,412.438,456.765,417.04z"></path><path d="M485.748,440.498h-26.913c4.535-6.702,7.187-14.777,7.187-23.46c0-23.139-18.827-41.966-41.966-41.966 c-3.819,0-7.516,0.522-11.035,1.483v-83.613c0-12.683-2.321-25.056-6.898-36.772c-1.858-4.76-7.224-7.115-11.986-5.251 c-4.759,1.859-7.111,7.225-5.251,11.986c3.734,9.562,5.629,19.667,5.629,30.038v94.322c-7.667,7.608-12.425,18.146-12.425,29.774 c0,8.683,2.651,16.759,7.187,23.46h-16.44V325.896c0-5.111-4.142-9.253-9.253-9.253H301.86l-11.578-88.108 c12.453-3.83,24.023-9.691,34.327-17.193c18.078,2.746,34.592,11.357,47.42,24.957c3.506,3.721,9.363,3.889,13.079,0.383 c3.718-3.506,3.889-9.362,0.383-13.08c-12.098-12.827-27.348-22.153-43.973-27.252c19.419-20.871,31.319-48.827,31.319-79.516 c0-5.101-0.324-10.123-0.954-14.863c-4.953-39.23-29.227-72.998-64.947-90.335C290.943,3.915,273.806,0,255.999,0 c-28.24,0-55.5,10.212-76.758,28.757c-3.947,3.443-7.639,7.128-11.059,11.026c-14.82,16.89-24.536,37.758-27.786,60.112 c0,0.002,0,0.005-0.001,0.007c-0.819,5.639-1.233,11.336-1.233,16.934c0,30.676,11.89,58.623,31.295,79.491 c-41.334,12.684-71.48,51.178-71.48,96.614v32.961c0,5.111,4.142,9.253,9.253,9.253c5.111,0,9.253-4.142,9.253-9.253V292.94 c0-41.223,30.367-75.486,69.905-81.599c10.307,7.503,21.879,13.366,34.335,17.196l-11.588,88.106h-61.717 c-5.111,0-9.253,4.142-9.253,9.253v59.098c0,5.111,4.142,9.253,9.253,9.253s9.253-4.142,9.253-9.253v-49.846h60.484 c0.036,0,0.073,0.007,0.109,0.007c0.052,0,0.104-0.006,0.157-0.007h75.155c0.052,0.001,0.103,0.007,0.157,0.007 c0.037,0,0.074-0.007,0.111-0.007h60.488v105.35H242.736c-5.111,0-9.253,4.142-9.253,9.253c0,5.111,4.142,9.253,9.253,9.253h233.759 v34.49H35.503v-34.49h168.68c5.111,0,9.253-4.142,9.253-9.253c0-5.111-4.142-9.253-9.253-9.253h-46.514v-17.323 c0-5.111-4.142-9.253-9.253-9.253s-9.253,4.142-9.253,9.253v17.323h-21.68v-77.986c0-5.111-4.142-9.253-9.253-9.253 s-9.253,4.142-9.253,9.253v77.986H26.25c-5.111,0-9.253,4.142-9.253,9.253v52.996c0,5.111,4.142,9.253,9.253,9.253h459.499 c5.111,0,9.253-4.142,9.253-9.253V449.75C495.002,444.64,490.86,440.498,485.748,440.498z M217.818,80.285 c7.385,6.363,20.296,15.23,40.489,22.181c4.834,1.666,10.098-0.907,11.761-5.738c1.662-4.833-0.906-10.098-5.738-11.761 c-28.774-9.904-39.526-23.724-39.576-23.788c-1.784-2.447-4.621-3.837-7.673-3.802c-3.024,0.063-5.827,1.6-7.507,4.118 c-9.039,13.559-31.528,22.596-47.817,27.298c0.277-0.927,0.571-1.846,0.874-2.762c13.129-39.636,51.588-67.524,93.366-67.524 c14.997,0,29.426,3.297,42.871,9.79c22.872,11.101,41.193,31.106,49.662,55.147c1.303,3.635,2.39,7.368,3.263,11.176 c-18.894,1.048-36.535,0.497-52.56-1.644c-5.076-0.676-9.721,2.881-10.398,7.944c-0.677,5.065,2.88,9.721,7.944,10.398 c11.577,1.549,23.893,2.323,36.837,2.323c6.71,0,13.598-0.222,20.628-0.638c0.048,1.27,0.082,2.547,0.082,3.837 c0,54.22-44.11,98.329-98.33,98.329s-98.33-44.109-98.33-98.329c0-2.631,0.121-5.291,0.338-7.956 C171.228,105.755,200.376,97.289,217.818,80.285z M239.859,232.551c5.278,0.732,10.664,1.12,16.139,1.12 c5.477,0,10.865-0.388,16.143-1.12l11.051,84.092h-54.393L239.859,232.551z M400.595,417.038c0-12.936,10.524-23.46,23.46-23.46 c12.936,0,23.46,10.524,23.46,23.46c0,12.936-10.524,23.46-23.46,23.46C411.119,440.498,400.595,429.973,400.595,417.038z"></path><path d="M273.426,397.077c5.111,0,9.253-4.142,9.253-9.253s-4.142-9.253-9.253-9.253h-36.04c-5.111,0-9.253,4.142-9.253,9.253 s4.142,9.253,9.253,9.253H273.426z"></path><circle cx="213.127" cy="150.518" r="13.571"></circle><circle cx="298.077" cy="150.518" r="13.571"></circle></svg>