<!-- icon666.com - MILLIONS OF FREE VECTOR ICONS --><svg id="Layer_1" viewBox="0 0 50 50" xmlns="http://www.w3.org/2000/svg"><g><g stroke="#682f2a" stroke-linecap="round" stroke-linejoin="round" stroke-miterlimit="10"><path d="m48.3 36.7c0 .5-.1 1-.1 1.6-.3 1.6-1.7 2.8-3.4 2.8h-7.2c-1.6 0-3.1-1.1-3.4-2.8-.1-.5-.1-1.1-.1-1.6 0-3 1.8-4 4.4-4.4l2.8 2.3 2.8-2.3c2.4.3 4.2 1.4 4.2 4.4z" fill="#abb734"></path><path d="m46 36.7c0 .4 0 .7-.1 1.2s-.6.9-1.1.9h-7.2c-.6 0-1-.4-1.1-.9-.1-.4-.1-.8-.1-1.2" fill="none"></path><path d="m39.8 38.7c-.6 0-1.2.5-1.2 1.1s.5 1.1 1.2 1.1" fill="none"></path><ellipse cx="41.2" cy="27.9" fill="#abb734" rx="3.4" ry="3.4"></ellipse><path d="m32.1 36.7c0 .5-.1 1-.1 1.6-.3 1.6-1.7 2.8-3.4 2.8h-7.2c-1.6 0-3.1-1.1-3.4-2.8-.1-.5-.1-1.1-.1-1.6 0-3 1.8-4 4.4-4.4l2.8 2.3 2.8-2.3c2.4.3 4.2 1.4 4.2 4.4z" fill="#559aff"></path><path d="m29.9 36.7c0 .4 0 .7-.1 1.2s-.6.9-1.1.9h-7.2c-.6 0-1-.4-1.1-.9-.1-.4-.1-.8-.1-1.2" fill="none"></path><path d="m23.6 38.7c-.6 0-1.2.5-1.2 1.1s.5 1.1 1.2 1.1" fill="none"></path><g><ellipse cx="25" cy="27.9" fill="#559aff" rx="3.4" ry="3.4"></ellipse><ellipse cx="8.8" cy="27.9" fill="#ff8c83" rx="3.4" ry="3.4"></ellipse></g><path d="m16 36.7c0 .5-.1 1-.1 1.6-.3 1.6-1.7 2.8-3.4 2.8h-7.3c-1.6 0-3.1-1.1-3.4-2.8-.1-.5-.1-1.1-.1-1.6 0-3 1.8-4 4.4-4.4l2.8 2.3 2.8-2.3c2.5.3 4.3 1.4 4.3 4.4z" fill="#ff8c83"></path><g fill="none"><path d="m13.7 36.7c0 .4 0 .7-.1 1.2s-.6.9-1.1.9h-7.3c-.6 0-1-.4-1.1-.9s-.1-.9-.1-1.2"></path><path d="m7.5 38.7c-.6 0-1.2.5-1.2 1.1s.5 1.1 1.2 1.1"></path></g></g><g><ellipse cx="33.8" cy="20.4" fill="#6cd8d5" rx="3.4" ry="3.4" stroke="#682f2a" stroke-linecap="round" stroke-linejoin="round" stroke-miterlimit="10"></ellipse><g><ellipse cx="17.6" cy="20.4" fill="#ffb95c" rx="3.4" ry="3.4" stroke="#682f2a" stroke-linecap="round" stroke-linejoin="round" stroke-miterlimit="10"></ellipse></g></g><g><g><ellipse cx="25.7" cy="12.5" fill="#fa4968" rx="3.4" ry="3.4" stroke="#682f2a" stroke-linecap="round" stroke-linejoin="round" stroke-miterlimit="10"></ellipse></g></g></g></svg>