<!-- icon666.com - MILLIONS OF FREE VECTOR ICONS --><svg id="Layer_1" viewBox="0 0 50 50" xmlns="http://www.w3.org/2000/svg"><g><g><g stroke="#682f2a" stroke-linecap="round" stroke-linejoin="round" stroke-miterlimit="10"><path d="m25.3 34.4h12.1v2.5h-12.1z" fill="#f9a846"></path><g><g fill="#ffb95c"><path d="m40.4 40.6h-3.2l-3.5-14.8h3.1z"></path><path d="m22.3 40.6h3.2l3.5-14.8h-3.1z"></path></g><path d="m46 29.5h-29.3c-1.4 0-2.5-1.1-2.5-2.5v-17.9c0-1.4 1.1-2.5 2.5-2.5h29.3c1.4 0 2.5 1.1 2.5 2.5v17.8c0 1.4-1.1 2.6-2.5 2.6z" fill="#e5e5e5"></path><path d="m26.1 4.9h10.5v1.7h-10.5z" fill="#f9a846"></path><path d="m29.9 2.1h2.8v2.8h-2.8z" fill="#ffb95c"></path></g><path d="m30.4 29.5h1.9v4.9h-1.9z" fill="#f9a846"></path></g><g><g stroke-linecap="round" stroke-linejoin="round" stroke-miterlimit="10"><g stroke="#682f2a"><circle cx="18.2" cy="14.4" fill="#fa4968" r="1.2"></circle><circle cx="29.4" cy="18.1" fill="#ffb95c" r="1.3"></circle><circle cx="22.2" cy="23.5" fill="#8cf2ed" r="1.2"></circle></g><g fill="none"><g stroke="#cccaca"><path d="m18.7 19.1-1.6 1.6"></path><path d="m18.7 20.7-1.6-1.6"></path></g><g stroke="#cccaca"><path d="m31.2 23.1-1.6 1.6"></path><path d="m31.2 24.7-1.6-1.6"></path></g><g stroke="#cccaca"><path d="m30 11.8-1.6 1.7"></path><path d="m30 13.5-1.6-1.7"></path></g><path d="m28.4 18.8-5.3 4" stroke="#682f2a"></path><path d="m24.6 12.2-5.2 1.8" stroke="#682f2a"></path><path d="m28.1 17.7-8.7-2.9" stroke="#682f2a"></path><path d="m23.5 13.6 1.1-1.4-1.7-.5" stroke="#682f2a"></path></g></g><g stroke-linecap="round" stroke-linejoin="round" stroke-miterlimit="10"><g><path d="m37.4 9.5h2.8v2.8h-2.8z" fill="#fa4968" stroke="#682f2a"></path><g fill="none" stroke="#cccaca"><path d="m41.9 10.1h3.9"></path><path d="m41.9 11.7h1.8"></path></g></g><g><path d="m37.4 14.2h2.8v2.8h-2.8z" fill="#ffb95c" stroke="#682f2a"></path><g fill="none" stroke="#cccaca"><path d="m41.9 14.9h3.9"></path><path d="m41.9 16.4h1.8"></path></g></g><g><path d="m37.4 19h2.8v2.8h-2.8z" fill="#6cd8d5" stroke="#682f2a"></path><g fill="none" stroke="#cccaca"><path d="m41.9 19.6h3.9"></path><path d="m41.9 21.2h1.8"></path></g></g><g><path d="m37.4 23.7h2.8v2.8h-2.8z" fill="#6eb0ff" stroke="#682f2a"></path><g fill="none" stroke="#cccaca"><path d="m41.9 24.3h3.9"></path><path d="m41.9 25.9h1.8"></path></g></g></g><g><g fill="none" stroke="#cccaca" stroke-linecap="round" stroke-linejoin="round"><path d="m34.2 9.5v1.5"></path><path d="m34.2 13.8v9.8" stroke-dasharray="2.8 2.8"></path><path d="m34.2 25v1.5"></path></g></g></g></g><g><path d="m10.3 14.8c.9 1.9 2.2 3.7 3.5 5.5 1.4 1.7 2.9 3.3 4.6 4.4.7.4 1 1.4.5 2.1-1.4 1.9-3.9-.8-5.1-1.6-2.8-2.4-5-5.2-7-8.4-1.3-2.5 2.2-4.4 3.5-2z" fill="#ed2f58" stroke="#682f2a" stroke-miterlimit="10"></path><path d="m12.8 46.3c-.2 2.3-3.6 2.2-3.6-.1 0-4.1.1-7.9-1.2-11.9 0 2.7-.2 5.5-1 8.1-.4 1.4-.8 2.8-1.2 4.3-.3.9-1.2 1.4-2.1 1.2-.9-.3-1.4-1.1-1.2-2 .8-4.1 1.8-8.1 1-12.3-.2-1.4-.4-2.8-.6-4.3-.8-4.1-1-8.6-.8-13.5.1-2.3 2-2.7 4.4-2.6 2.3.1 4.2.8 4 3.1-.3 4.3 0 8.3.7 11.8 0 .1 0 .1.1.2.7 3.1 1.4 5.8 1.9 9 .1 3-.2 5.9-.4 9z" fill="#559aff"></path><path d="m2.8 29.2v.1s8.4-1.3 8.4-1.2c0-.1 0-.1-.1-.2-.7-3.5-.9-7.5-.7-11.8.1-2.3-1.7-2.9-4-3.1-2.3-.1-4.2.3-4.4 2.6-.2 5 0 9.5.8 13.6z" fill="#fa4968"></path><path d="m12.8 46.3c-.2 2.3-3.6 2.2-3.6-.1 0-4.1.1-7.9-1.2-11.9 0 2.7-.2 5.5-1 8.1-.4 1.4-.8 2.8-1.2 4.3-.3.9-1.2 1.4-2.1 1.2-.9-.3-1.4-1.1-1.2-2 .8-4.1 1.8-8.1 1-12.3-.2-1.4-.4-2.8-.6-4.3-.8-4.1-1-8.6-.8-13.5.1-2.3 2-2.7 4.4-2.6 2.3.1 4.2.8 4 3.1-.3 4.3 0 8.3.7 11.8 0 .1 0 .1.1.2.7 3.1 1.4 5.8 1.9 9 .1 3-.2 5.9-.4 9z" fill="none" stroke="#682f2a" stroke-linecap="round" stroke-linejoin="round" stroke-miterlimit="10"></path><path d="m4.4 15c1.3.3 1.7 1.7.8 4.4-.1 1-.2 2.1-.3 3.1-.1 2.2 0 4.4.5 6.3.3.8-.2 1.6-1 1.9-2.3.5-2.4-3.1-2.7-4.6-.4-3.1-.4-6 0-9.1.3-1.2 1.4-2.2 2.7-2z" fill="#ff6989"></path><g stroke="#682f2a" stroke-miterlimit="10"><path d="m5.3 19.5c-.1 1-.2 2.1-.3 3.1-.1 2.2 0 4.4.5 6.3.3.8-.2 1.6-1 1.9-2.3.5-2.4-3.1-2.7-4.6-.5-3.7-.3-7.2.3-10.9" fill="none" stroke-linecap="round" stroke-linejoin="round"></path><ellipse cx="6.9" cy="7.2" fill="#616b77" rx="3.5" ry="3.5"></ellipse><path d="m8 34.3s-.2-.8-.6-1.2" fill="#fff" stroke-linecap="round" stroke-linejoin="round"></path><path d="m11.2 28.1-5.6.8" fill="none" stroke-linecap="round" stroke-linejoin="round"></path></g></g></g></svg>