<!-- icon666.com - MILLIONS vector ICONS FREE --><svg version="1.1" id="Capa_1" xmlns="http://www.w3.org/2000/svg" xmlns:xlink="http://www.w3.org/1999/xlink" x="0px" y="0px" viewBox="0 0 511.998 511.998" style="enable-background:new 0 0 511.998 511.998;" xml:space="preserve"><path style="fill:#C6C3B2;" d="M332.408,373.768C310.497,359.457,284.299,351.06,256,351.06l-35.068,85.231L256,491.459 c49.395,0,95.669-13.334,135.445-36.577C376.362,398.914,333.421,374.954,332.408,373.768z"></path><path style="fill:#F1EBDE;" d="M120.554,454.882c39.777,23.244,86.051,36.577,135.445,36.577l0,0V351.06 C191.663,351.06,136.721,394.884,120.554,454.882z"></path><g><path style="fill:#C6C3B2;" d="M337.947,382.403c0.957-0.854,1.941-1.745,2.918-2.626c-4.916-3.735-8.188-5.692-8.459-6.008 c-21.911-14.311-48.109-22.708-76.408-22.708c-31.757,0-61.214,10.692-84.86,28.722c0.975,0.879,1.957,1.768,2.911,2.62 c7.074,6.316,14.904,11.819,23.271,16.356c17.958,9.737,38.248,14.884,58.677,14.884 C286.282,413.643,315.386,402.548,337.947,382.403z"></path><path style="fill:#C6C3B2;" d="M152.836,470.934c9.203,3.829,18.663,7.164,28.35,9.966v-63.215 C167.017,432.015,156.937,450.396,152.836,470.934z"></path></g><path style="fill:#8C9DA5;" d="M209.241,345.873v70.939v39.579c0,13.921,7.517,26.794,19.716,33.498 c0.165,0.091,0.332,0.182,0.5,0.273l26.541,1.297v-98.829L209.241,345.873z"></path><path style="fill:#647D87;" d="M255.999,392.632L232.62,446.9l23.379,44.56l26.541-1.297c0.168-0.091,0.335-0.182,0.5-0.273 c12.199-6.704,19.716-19.577,19.716-33.498v-39.579v-70.939L255.999,392.632z"></path><path style="fill:#534E47;" d="M268.397,405.03L268.397,405.03c3.173-3.173,5.136-7.557,5.136-12.398 c0-9.684-7.85-17.534-17.534-17.534c-9.684,0-17.534,7.85-17.534,17.534c0,4.842,1.962,9.226,5.136,12.398l0,0l-14.143,85.132 l26.538,14.336l26.537-14.336L268.397,405.03z"></path><path style="fill:#F6D99F;" d="M255.999,36.656c-74.76,0-137.809,66.125-157.372,140.133c-7.152-3.639-15.24-5.704-23.815-5.704 c-29.051,0-52.603,23.551-52.603,52.603c0,29.051,23.551,52.603,52.603,52.603c11.765,0,22.628-3.864,31.39-10.391 c20.326,35.457,58.705,73.076,85.367,96.884c17.111,15.279,39.889,24.557,64.431,24.557c23.766,0,46.703-8.728,64.431-24.557 c37.822-33.772,99.223-95.337,99.223-139.095C419.652,133.197,346.271,36.656,255.999,36.656z"></path><g><path style="fill:#F3CC82;" d="M437.186,171.086c-8.576,0-16.665,2.065-23.818,5.706c-12.419-46.976-42.356-90.737-81.654-116.461 c22.276,32.818,35.605,72.468,35.605,111.026c0,43.758-61.4,105.323-99.223,139.095c-17.727,15.829-40.665,24.557-64.431,24.557 c-24.542,0-47.32-9.279-64.431-24.557c-0.227-0.203-0.459-0.411-0.687-0.616c17.699,20.252,37.375,38.979,53.019,52.948 c17.111,15.279,39.889,24.557,64.431,24.557c23.766,0,46.703-8.728,64.431-24.557c26.663-23.808,65.041-61.427,85.367-96.884 c8.762,6.527,19.624,10.391,31.39,10.391c29.051,0,52.602-23.551,52.602-52.603C489.789,194.637,466.237,171.086,437.186,171.086z"></path><circle style="fill:#F3CC82;" cx="74.808" cy="223.686" r="17.534"></circle></g><circle style="fill:#EDBE72;" cx="437.19" cy="223.686" r="17.534"></circle><path style="fill:#F3CC82;" d="M312.832,99.452H199.138c-46.84,0-88.117,31.26-100.287,76.492c-0.075,0.279-0.15,0.559-0.224,0.838 c11.762,5.966,20.99,16.201,25.629,28.676c9.801-2.415,17.715-9.406,21.901-19.73c15.616-38.519,38.125-58.879,65.097-58.879 c14.067,0,25.789,5.69,32.069,11.013c9.825,8.331,60.939,50.725,102.423,67.282c9.901,3.943,20.328,5.943,30.992,5.943 c3.195,0,6.369-0.196,9.511-0.559c3.797-14.738,13.83-26.96,27.108-33.723c-0.074-0.28-0.148-0.559-0.224-0.839 C400.968,130.723,359.684,99.452,312.832,99.452z"></path><path style="fill:#AC6A00;" d="M264.182,247.798c-3.794,0-7.015,2.414-8.236,5.786c-1.298-3.219-4.446-5.494-8.129-5.494 c-19.337,0-35.068,15.732-35.068,35.068c0,4.842,3.924,8.767,8.767,8.767c17.224,0,31.577-12.484,34.51-28.878 c3.05,16.249,17.336,28.585,34.458,28.585c4.843,0,8.767-3.925,8.767-8.767C299.25,263.53,283.518,247.798,264.182,247.798z"></path><path style="fill:#D4850D;" d="M376.43,78.459c0,0,22.235-23.056-9.056-43.007c-71.165-45.386-162.613-26.629-210.25-6.321 C128.495,41.34,109.939,59.191,97.9,77.32c-21.961,33.072-22.21,67.071-22.21,69.432c0,1.5,0,11.769,0,24.343 c7.939,0,16.078,2.454,22.827,5.603l0,0l0,0c6.903,3.517,21.361,13.961,26.787,0.577C162.164,86.354,230.383,97.39,257.876,120.7 l68.195,29.073c12.991,5.538,27.841,4.56,39.993-2.634l0,0c21.887-12.959,28.415-41.63,14.298-62.786L376.43,78.459z"></path><g><path style="fill:#AC6A00;" d="M305.854,77.056c-0.492,0.537-0.105,1.402,0.624,1.402h69.953c0,0,22.235-23.056-9.056-43.007 c-29.302-18.688-62.042-26.495-93.748-27.802c1.46,0.06,2.922,0.134,4.386,0.223C312.855,9.974,329.055,51.738,305.854,77.056z"></path><path style="fill:#AC6A00;" d="M376.43,78.459c2.575,13.378,2.674,27.173-5.824,36.982c-17.755,20.495-48.656,23.214-70.381,6.988 c-9.325-6.965-18.27-14.094-26.18-20.799c-17.969-15.235-50.052-28.346-86.203-19.453c-21.728,5.346-50.538,20.366-73.457,60.33 c-3.459,6.033-10.614,8.958-17.269,6.937c-6.295-1.912-13.622-3.35-21.42-3.351c-0.005,0.301-0.006,0.534-0.006,0.66 c0,1.5,0,11.769,0,24.343c7.939,0,16.078,2.454,22.827,5.603l0,0l0,0c6.903,3.517,21.361,13.961,26.787,0.577 C162.164,86.354,230.383,97.39,257.876,120.7c22.342,18.942,64.687,50.964,96.196,63.54c7.014,2.793,14.657,4.346,22.666,4.346 c20.397,0,38.463-9.964,49.609-25.292c5.052-6.947,7.679-15.239,7.697-23.586v-3.636C434.043,104.253,408.249,78.459,376.43,78.459 L376.43,78.459z"></path></g><path style="fill:#A47C64;" d="M153.912,495.968c-2.34,0-4.647-1.092-6.11-3.142L17.331,310.156 c-2.408-3.371-1.627-8.056,1.744-10.463c3.371-2.408,8.056-1.627,10.463,1.744L160.01,484.107c2.408,3.371,1.627,8.056-1.744,10.463 C156.944,495.514,155.421,495.968,153.912,495.968z"></path><path style="fill:#E7AF62;" d="M113.982,420.227l-4.773,23.075l17.604-5.112c4.487,6.281,13.54,7.031,18.997,1.572l0,0 c4.318-4.318,4.882-11.124,1.332-16.093l-12.832-17.964c-4.487-6.281-13.54-7.031-18.997-1.572l0,0 C110.997,408.452,110.434,415.259,113.982,420.227z"></path><path style="fill:#F3CC82;" d="M127.11,474.997L127.11,474.997c-9.886,9.886-25.914,9.886-35.799,0l-6.898-6.898 c-13.695-13.696-13.695-35.899,0-49.595l0,0c8.654-8.654,23.007-7.466,30.121,2.493l15.276,21.387 C137.001,452.453,135.86,466.246,127.11,474.997z"></path><path style="fill:#C4E2D8;" d="M232.352,194.977c-14.905-15.679-78.387-15.498-93.582,0c-10.114,10.315-3.776,46.947,10.32,55.075 c15.841,9.134,57.982,8.391,71.516-1.36C232.703,239.977,242.363,205.508,232.352,194.977z"></path><path style="fill:#8BD4DC;" d="M232.352,194.977c-4.211-4.43-12.3-7.593-22.082-9.502c-0.789,13.981-7.763,31.241-15.83,37.052 c-10.675,7.692-39.142,9.773-58.468,5.829c2.515,9.58,7.108,18.231,13.118,21.697c15.841,9.134,57.982,8.391,71.516-1.36 C232.703,239.977,242.363,205.508,232.352,194.977z"></path><path style="fill:#C4E2D8;" d="M373.229,194.977c-15.184-15.485-78.663-15.694-93.582,0c-10.011,10.531-0.351,45,11.746,53.716 c0.138,0.099,0.297,0.191,0.441,0.288c14.638,9.925,59.457,10.162,73.169-0.288C376.71,239.768,383.332,205.281,373.229,194.977z"></path><path style="fill:#8BD4DC;" d="M373.229,194.977c-4.136-4.219-11.861-7.301-21.207-9.239c0.055,13.862-5.455,30.897-13.186,36.788 c-10.75,8.194-40.618,9.815-60.074,5.351c2.946,9.018,7.572,17.17,12.631,20.815c0.138,0.099,0.297,0.191,0.441,0.288 c14.638,9.925,59.457,10.162,73.169-0.288C376.71,239.768,383.332,205.281,373.229,194.977z"></path><path d="M336.145,412.41c-2.912-2.945-7.662-2.972-10.607-0.06c-2.945,2.912-2.972,7.662-0.06,10.607 c13.489,13.643,22.594,30.74,26.329,49.444c0.712,3.566,3.844,6.034,7.348,6.034c0.486,0,0.981-0.048,1.477-0.147 c4.063-0.811,6.698-4.763,5.887-8.824C362.205,447.874,351.702,428.145,336.145,412.41z"></path><path d="M437.186,163.585c-0.692,0-1.377,0.037-2.065,0.06c3.849-6.165,6.737-12.926,8.474-20.051 c0.256-1.054,0.281-2.15,0.073-3.215c-1.329-6.806-3.358-13.387-6.035-19.567c-9.755-22.462-26.382-38.084-49.5-46.549 c2.263-4.696,4.076-10.85,3.256-17.775c-1.243-10.492-7.967-19.697-19.982-27.359C302.385-14.893,211.253-2.1,154.182,22.23 c-26.572,11.331-47.61,28.469-62.53,50.94c-22.804,34.342-23.462,69.666-23.462,73.581v17.201 c-13.833,1.52-26.732,7.853-36.542,18.003c-10.37,10.731-16.373,24.773-16.9,39.537c-0.589,16.482,5.38,32.082,16.808,43.925 c11.433,11.849,26.795,18.374,43.256,18.374c10.255,0,20.121-2.542,28.941-7.41c19.886,31.644,51.951,63.983,77.729,87.411 c-16.342,9.512-30.36,21.751-41.845,36.539c-3.423-4.201-8.399-6.84-13.84-7.29c-5.863-0.483-11.622,1.624-15.786,5.788 c-2.124,2.124-3.675,4.615-4.651,7.275c-0.799-0.209-1.61-0.38-2.431-0.517l-74.392-104.15c-2.408-3.372-7.093-4.152-10.463-1.744 c-3.371,2.407-4.151,7.092-1.744,10.463l69.925,97.901c-2.614,1.301-5.032,3.027-7.148,5.144c-16.598,16.598-16.598,43.604,0,60.202 l6.898,6.898c6.398,6.398,14.799,9.596,23.204,9.596c8.402,0,16.807-3.199,23.204-9.596c1.088-1.088,2.085-2.236,2.991-3.432 l11.397,15.957c1.464,2.05,3.769,3.142,6.11,3.142c1.508,0,3.032-0.454,4.354-1.397c3.371-2.407,4.152-7.092,1.744-10.463 l-17.102-23.945c0.304-3.24,0.123-6.524-0.55-9.74c3.653-0.819,7.046-2.642,9.758-5.355c6.939-6.939,7.836-17.771,2.131-25.757 l-4.438-6.213c11.802-16.284,26.854-29.355,44.856-38.934c2.609,1.945,5.303,3.767,8.075,5.456v37.192v39.579 c0,16.717,9.045,32.071,23.609,40.075l0.541,0.294h0.001c0.001,0,0.001,0.001,0.002,0.001l26.537,14.336 c1.112,0.601,2.339,0.901,3.565,0.901c1.227,0,2.452-0.3,3.564-0.901l26.492-14.312c0.018-0.01,0.037-0.016,0.056-0.026l0.544-0.296 c14.562-8.001,23.607-23.356,23.607-40.073v-39.579v-37.189c2.776-1.691,5.475-3.517,8.088-5.468c3.28,1.756,6.503,3.649,9.617,5.67 c0.438,0.336,0.955,0.683,1.635,1.138c26.882,18.018,46.274,44.962,54.604,75.871c0.901,3.346,3.93,5.551,7.237,5.551 c0.646,0,1.303-0.084,1.956-0.26c4-1.078,6.369-5.195,5.291-9.194c-9.272-34.409-30.843-64.394-60.736-84.429 c-0.318-0.213-0.574-0.382-0.759-0.51c-0.217-0.181-0.445-0.349-0.683-0.504c-1.96-1.28-3.967-2.503-5.995-3.693 c25.778-23.429,57.843-55.767,77.73-87.412c8.819,4.868,18.685,7.41,28.941,7.41c33.142,0,60.104-26.962,60.104-60.103 S470.328,163.585,437.186,163.585z M121.805,469.693c-6.946,6.945-18.247,6.945-25.191,0l-6.898-6.898 c-10.748-10.749-10.748-28.237,0-38.987c2.32-2.32,5.443-3.604,8.694-3.604c0.339,0,0.68,0.014,1.021,0.042 c3.611,0.299,6.891,2.162,8.997,5.111l15.276,21.385C128.787,453.859,127.988,463.51,121.805,469.693z M140.507,434.46 c-1.423,1.423-3.079,1.516-3.94,1.444c-0.86-0.071-2.479-0.435-3.648-2.072l-0.001-0.001l-12.28-17.193 c-0.118-0.166-0.246-0.323-0.367-0.485c-0.062-0.095-0.116-0.192-0.183-0.285c-1.424-1.993-1.2-4.697,0.532-6.429 c1.423-1.422,3.078-1.516,3.94-1.444c0.86,0.071,2.479,0.435,3.648,2.072l12.831,17.964 C142.463,430.024,142.239,432.728,140.507,434.46z M83.191,146.751c0-3.451,0.588-34.606,20.958-65.282 c13.273-19.988,32.086-35.276,55.917-45.438c53.711-22.899,139.176-35.134,203.275,5.746c7.994,5.098,12.414,10.607,13.14,16.378 c0.665,5.298-1.856,10.099-3.689,12.804h-53.116c-4.143,0-7.501,3.358-7.501,7.501s3.357,7.501,7.501,7.501h55.709 c23.127,6.281,39.449,20.004,48.489,40.819c2.03,4.691,3.621,9.676,4.739,14.841c-3.177,11.481-10.164,21.681-19.805,28.854 c-9.328,6.942-20.416,10.61-32.067,10.61c-6.845,0-13.537-1.283-19.885-3.811c-28.802-11.495-68.705-40.743-94.125-62.295 c-10.914-9.252-29.672-18.135-51.52-18.135c-6.183,0-12.615,0.711-19.185,2.328c-21.865,5.379-52.395,22.807-73.67,75.285 c-0.741,1.829-0.968,2.38-4.029,1.66c-1.686-0.396-3.456-1.207-5.257-2.404c-0.037-0.024-0.076-0.05-0.116-0.076 c-1.166-0.775-2.41-1.536-3.693-2.262c-0.032-0.019-0.141-0.081-0.173-0.099c-1.307-0.735-2.657-1.428-4.011-2.06l0,0 c-5.71-2.664-11.698-4.391-17.881-5.16L83.191,146.751L83.191,146.751z M247.816,255.591c0.628,0,1.024,0.43,1.172,0.798 c0.294,0.728,0.693,1.392,1.176,1.976c-0.76,0.95-1.297,2.095-1.523,3.361c-2.353,13.153-13.762,22.699-27.127,22.699 c-0.698,0-1.266-0.568-1.266-1.266C220.249,267.958,232.615,255.591,247.816,255.591z M216.57,241.891L216.57,241.891 c-5.171,3.726-18.111,6.256-32.201,6.296c-0.12,0-0.238,0-0.358,0c-16.083,0-27.345-3.091-31.393-6.176 c-4.094-3.121-9.073-14.241-9.976-26.763c-0.581-8.052,0.907-13.439,2.639-15.206c4.587-4.679,20.158-9.329,41.226-9.329 c0.367,0,0.739,0.001,1.11,0.004c21.28,0.165,35.409,4.906,39.531,9.241c1.28,1.347,2.541,5.429,1.88,12.498 C227.82,225.384,221.494,238.344,216.57,241.891z M247.816,240.589c-4.478,0-8.794,0.699-12.852,1.987 c4.117-7.232,7.026-16.073,8.373-24.018c0.417-0.785,0.701-1.656,0.817-2.591c0.704-5.679,4.964-10.143,10.358-10.856 c3.042-0.401,6.076,0.429,8.548,2.339c2.656,2.053,4.354,5.079,4.781,8.517c0.115,0.929,0.403,1.793,0.815,2.575 c1.323,7.817,4.158,16.504,8.171,23.673c-3.997-1.246-8.245-1.918-12.647-1.918c-3.027,0-5.922,0.85-8.408,2.357 C253.399,241.325,250.676,240.589,247.816,240.589z M262.998,256.139c0.151-0.418,0.576-0.84,1.184-0.84 c15.201,0,27.567,12.366,27.567,27.567c0,0.698-0.567,1.266-1.266,1.266c-13.25,0-24.642-9.449-27.086-22.469 c-0.241-1.286-0.803-2.443-1.592-3.396C262.309,257.639,262.714,256.923,262.998,256.139z M282.969,212.459 c-0.66-7.071,0.6-11.152,1.88-12.499c4.121-4.336,18.251-9.077,39.532-9.241c0.372-0.003,0.74-0.004,1.108-0.004 c21.065,0,36.639,4.651,41.226,9.329c1.732,1.766,3.22,7.153,2.64,15.204c-0.903,12.523-5.882,23.644-9.977,26.764 c-4.046,3.084-15.307,6.177-31.392,6.176c-0.119,0-0.239,0-0.358,0c-14.089-0.04-27.029-2.57-32.2-6.296h-0.001 C290.505,238.345,284.177,225.385,282.969,212.459z M224.134,476.436c-4.688-5.479-7.393-12.551-7.393-20.044V433.56 c0.623,0.07,1.246,0.114,1.868,0.114c4.377,0,8.668-1.712,11.899-4.945l1.86-1.86L224.134,476.436z M219.902,418.122 c-0.58,0.58-1.26,0.715-2.017,0.401c-0.758-0.314-1.143-0.89-1.143-1.71V387.16c4.612,1.871,9.361,3.425,14.222,4.626v0.845 c0,4.175,1.033,8.113,2.849,11.578L219.902,418.122z M255.995,495.973l-18.26-9.864l11.524-69.371 c2.146,0.601,4.405,0.929,6.74,0.929c2.335,0,4.594-0.328,6.74-0.929l11.517,69.371L255.995,495.973z M295.256,456.391 c0,7.496-2.707,14.57-7.399,20.05l-8.231-49.574l1.861,1.861c3.231,3.231,7.523,4.945,11.899,4.945c0.622,0,1.245-0.045,1.868-0.114 v22.832H295.256z M295.256,416.813c0,0.82-0.385,1.396-1.143,1.709c-0.76,0.315-1.437,0.179-2.018-0.401l-13.912-13.911 c1.816-3.465,2.849-7.403,2.849-11.579v-0.836c4.861-1.2,9.61-2.754,14.223-4.628v29.645H295.256z M437.186,268.79 c-7.836,0-15.363-1.98-22.068-5.761c3.013-7.689,8.189-22.419,12.54-42.494c1.379-4.055,5.249-6.871,9.527-6.88 c5.533,0,10.033,4.501,10.033,10.033c0,4.142,3.357,7.501,7.501,7.501c4.143,0,7.501-3.358,7.501-7.501 c0-13.805-11.23-25.035-25.088-25.035c-10.774,0.022-20.538,7.205-23.839,17.543c-0.054,0.161-0.103,0.324-0.146,0.491 c-0.037,0.145-0.07,0.289-0.1,0.433c-5.65,26.147-12.868,42.947-13.927,45.334c-19.594,34.026-56.303,70.281-83.689,94.735 c-12.039,10.75-26.774,18.016-42.643,21.05h-6.791c-4.143,0-7.501,3.358-7.501,7.501s3.357,7.501,7.501,7.501H266 c-0.318,5.248-4.676,9.423-10.002,9.423c-5.533,0-10.033-4.501-10.033-10.033v-6.899c0-3.618-2.583-6.722-6.143-7.377 c-16.117-2.968-31.076-10.288-43.259-21.166c-27.385-24.453-64.092-60.708-83.687-94.733c-1.053-2.376-8.267-19.162-13.927-45.328 c-0.029-0.147-0.063-0.294-0.102-0.441c-0.04-0.154-0.085-0.306-0.134-0.456c-3.261-10.334-13.048-17.556-23.903-17.578 c-13.805,0-25.035,11.23-25.035,25.035c0,4.142,3.358,7.501,7.501,7.501s7.501-3.358,7.501-7.501 c0-5.533,4.501-10.033,10.055-10.033c4.269,0.009,8.147,2.838,9.502,6.867c4.357,20.091,9.532,34.819,12.543,42.507 c-6.706,3.78-14.233,5.761-22.069,5.761c-12.353,0-23.881-4.897-32.461-13.79c-8.575-8.887-13.054-20.596-12.611-32.973 c0.811-22.683,19.126-41.681,41.728-43.32l4.276-0.112c6.621,0.008,13.008,1.424,18.984,4.213c1.014,0.473,2.025,0.992,2.985,1.532 c0.027,0.016,0.131,0.076,0.159,0.091c0.999,0.564,1.953,1.149,2.901,1.781c0.021,0.013,0.042,0.027,0.064,0.042 c3.27,2.162,6.651,3.664,10.05,4.464c9.897,2.328,17.685-1.545,21.368-10.626c14.957-36.893,36.862-59.838,63.35-66.354 c24.291-5.976,46.112,3.097,57.419,12.682c18.281,15.5,43.927,34.891,68.108,49.359c-11.234,0.35-36.318,2.442-47.157,13.844 c-1.314,1.382-2.416,3.004-3.316,4.836c-5.358-3.566-11.715-5.066-18.115-4.221c-4.102,0.542-7.897,2.037-11.202,4.234 c-0.901-1.837-2.005-3.464-3.322-4.85c-12.012-12.636-41.527-13.839-50.288-13.907c-9.197-0.068-40.311,0.715-53.163,13.823 c-2.53,2.58-4.213,5.791-5.301,9.236h-6.897c-4.142,0-7.501,3.358-7.501,7.501c0,4.142,3.358,7.501,7.501,7.501h5.177 c0.03,0.872,0.071,1.728,0.13,2.549c0.97,13.452,6.246,30.299,15.845,37.615c10.899,8.307,31.711,9.247,40.536,9.247 c0.119,0,0.236,0,0.351,0c4.605-0.013,16.85-0.361,27.818-3.351c-4.409,6.704-6.983,14.716-6.983,23.322 c0,8.97,7.298,16.268,16.268,16.268c14.115,0,26.816-6.895,34.599-17.75c7.815,10.681,20.425,17.458,34.37,17.458 c8.97,0,16.268-7.298,16.268-16.268c0-8.455-2.487-16.334-6.755-22.966c10.909,2.933,23.018,3.274,27.59,3.288 c0.114,0,0.231,0,0.35,0c8.827,0,29.638-0.94,40.536-9.247c9.6-7.316,14.876-24.165,15.846-37.616 c0.059-0.82,0.101-1.676,0.13-2.548h5.177c4.143,0,7.501-3.358,7.501-7.501c0-4.142-3.357-7.501-7.501-7.501h-6.897 c-0.309-0.981-0.676-1.937-1.088-2.87c12.333-0.863,24.044-4.977,34.236-12.051c0.301-0.107,0.599-0.228,0.892-0.376 c6.377-3.246,13.247-4.892,20.419-4.892c24.869,0,45.102,20.232,45.102,45.102S462.055,268.79,437.186,268.79z"></path><path d="M175.851,412.411c-9.572,9.682-17.235,20.869-22.775,33.25c-1.692,3.781,0.001,8.219,3.782,9.91 c0.995,0.445,2.035,0.656,3.059,0.656c2.867,0,5.605-1.653,6.851-4.439c4.803-10.732,11.447-20.432,19.75-28.83 c2.912-2.945,2.885-7.695-0.061-10.607C183.512,409.437,178.763,409.465,175.851,412.411z"></path></svg>