<!-- icon666.com - MILLIONS vector ICONS FREE --><svg version="1.1" id="Layer_1" xmlns="http://www.w3.org/2000/svg" xmlns:xlink="http://www.w3.org/1999/xlink" x="0px" y="0px" viewBox="0 0 512 512" style="enable-background:new 0 0 512 512;" xml:space="preserve"><path style="fill:#999999;" d="M212.884,29.642v452.716c0,11.906-9.651,21.558-21.558,21.558H61.979 c-11.906,0-21.558-9.651-21.558-21.558V29.642c0-11.906,9.651-21.558,21.558-21.558h129.347 C203.233,8.084,212.884,17.736,212.884,29.642z"></path><path style="fill:#C1C1C1;" d="M212.884,29.642V353.01H40.421V29.642c0-11.906,9.651-21.558,21.558-21.558h129.347 C203.233,8.084,212.884,17.736,212.884,29.642z"></path><g><path style="fill:#848484;" d="M169.768,417.684v21.558c0,5.952-4.826,10.779-10.779,10.779H94.316 c-5.953,0-10.779-4.827-10.779-10.779v-21.558c0-5.952,4.826-10.779,10.779-10.779h64.674 C164.943,406.905,169.768,411.732,169.768,417.684z"></path><path style="fill:#848484;" d="M191.326,503.916h-21.558c-11.906,0-21.558-9.651-21.558-21.558V29.642 c0-11.906,9.651-21.558,21.558-21.558h21.558c11.906,0,21.558,9.651,21.558,21.558v452.716 C212.884,494.264,203.233,503.916,191.326,503.916z"></path></g><path style="fill:#6D6D6D;" d="M180.547,417.684v21.558c0,5.953-4.826,10.779-10.779,10.779h-21.558v-43.116h21.558 C175.722,406.905,180.547,411.731,180.547,417.684z"></path><path style="fill:#FE7D49;" d="M320.674,503.916H191.326c-11.906,0-21.558-9.651-21.558-21.558V29.642 c0-11.906,9.651-21.558,21.558-21.558h129.347c11.906,0,21.558,9.651,21.558,21.558v452.716 C342.232,494.264,332.58,503.916,320.674,503.916z"></path><path style="fill:#FE9D5E;" d="M342.232,353.01H169.768V29.642c0-11.906,9.651-21.558,21.558-21.558h129.347 c11.906,0,21.558,9.651,21.558,21.558V353.01z"></path><g><path style="fill:#FE5A3A;" d="M299.116,450.021h-75.453c-5.953,0-10.779-4.826-10.779-10.779v-21.558 c0-5.953,4.826-10.779,10.779-10.779h75.453c5.953,0,10.779,4.826,10.779,10.779v21.558 C309.895,445.195,305.069,450.021,299.116,450.021z"></path><path style="fill:#FE5A3A;" d="M320.674,503.916h-21.558c-11.906,0-21.558-9.651-21.558-21.558V29.642 c0-11.906,9.651-21.558,21.558-21.558h21.558c11.906,0,21.558,9.651,21.558,21.558v452.716 C342.232,494.264,332.58,503.916,320.674,503.916z"></path></g><path style="fill:#D63730;" d="M309.895,417.684v21.558c0,5.953-4.826,10.779-10.779,10.779h-21.558v-43.116h21.558 C305.069,406.905,309.895,411.731,309.895,417.684z"></path><path style="fill:#FED76E;" d="M450.021,503.916H320.674c-11.906,0-21.558-9.651-21.558-21.558V29.642 c0-11.906,9.651-21.558,21.558-21.558h129.347c11.906,0,21.558,9.651,21.558,21.558v452.716 C471.579,494.264,461.927,503.916,450.021,503.916z"></path><path style="fill:#FEF184;" d="M471.579,353.01H299.116V29.642c0-11.906,9.651-21.558,21.558-21.558h129.347 c11.906,0,21.558,9.651,21.558,21.558V353.01z"></path><path style="fill:#E59C45;" d="M417.684,450.021H353.01c-5.953,0-10.779-4.826-10.779-10.779v-21.558 c0-5.953,4.826-10.779,10.779-10.779h64.674c5.953,0,10.779,4.826,10.779,10.779v21.558 C428.463,445.195,423.637,450.021,417.684,450.021z"></path><path d="M220.968,417.684v21.558c0,1.486,1.209,2.695,2.695,2.695h37.726c4.465,0,8.084,3.618,8.084,8.084s-3.62,8.084-8.084,8.084 h-37.726c-10.401,0-18.863-8.463-18.863-18.863v-21.558c0-10.401,8.463-18.863,18.863-18.863h37.726 c4.465,0,8.084,3.618,8.084,8.084s-3.62,8.084-8.084,8.084h-37.726C222.178,414.989,220.968,416.198,220.968,417.684z M94.316,414.989h32.337c4.465,0,8.084-3.618,8.084-8.084s-3.62-8.084-8.084-8.084H94.316c-10.401,0-18.863,8.463-18.863,18.863 v21.558c0,10.401,8.463,18.863,18.863,18.863h32.337c4.465,0,8.084-3.618,8.084-8.084s-3.62-8.084-8.084-8.084H94.316 c-1.485,0-2.695-1.208-2.695-2.695v-21.558C91.621,416.198,92.83,414.989,94.316,414.989z M94.316,113.179h26.947 c4.465,0,8.084-3.618,8.084-8.084c0-4.466-3.62-8.084-8.084-8.084H94.316c-4.465,0-8.084,3.618-8.084,8.084 C86.232,109.56,89.851,113.179,94.316,113.179z M223.663,80.842h37.726c4.465,0,8.084-3.618,8.084-8.084 c0-4.466-3.62-8.084-8.084-8.084h-37.726c-4.465,0-8.084,3.618-8.084,8.084C215.579,77.224,219.199,80.842,223.663,80.842z M94.316,80.842h26.947c4.465,0,8.084-3.618,8.084-8.084c0-4.466-3.62-8.084-8.084-8.084H94.316c-4.465,0-8.084,3.618-8.084,8.084 C86.232,77.224,89.851,80.842,94.316,80.842z M121.263,129.347H94.316c-4.465,0-8.084,3.618-8.084,8.084 c0,4.466,3.62,8.084,8.084,8.084h26.947c4.465,0,8.084-3.618,8.084-8.084C129.347,132.966,125.728,129.347,121.263,129.347z M417.684,64.674H353.01c-4.465,0-8.084,3.618-8.084,8.084c0,4.466,3.62,8.084,8.084,8.084h64.674c4.465,0,8.084-3.618,8.084-8.084 C425.768,68.292,422.149,64.674,417.684,64.674z M261.389,129.347h-37.726c-4.465,0-8.084,3.618-8.084,8.084 c0,4.466,3.62,8.084,8.084,8.084h37.726c4.465,0,8.084-3.618,8.084-8.084C269.474,132.966,265.854,129.347,261.389,129.347z M417.684,97.011H353.01c-4.465,0-8.084,3.618-8.084,8.084c0,4.466,3.62,8.084,8.084,8.084h64.674c4.465,0,8.084-3.618,8.084-8.084 C425.768,100.629,422.149,97.011,417.684,97.011z M479.663,29.642v452.716c0,16.344-13.297,29.642-29.642,29.642H61.979 c-16.345,0-29.642-13.298-29.642-29.642V29.642C32.337,13.298,45.634,0,61.979,0h388.042C466.366,0,479.663,13.298,479.663,29.642z M161.684,482.358V29.642c0-4.848,1.171-9.429,3.242-13.474H61.979c-7.43,0-13.474,6.044-13.474,13.474v315.284h72.758 c4.465,0,8.084,3.618,8.084,8.084c0,4.466-3.62,8.084-8.084,8.084H48.505v121.263c0,7.43,6.044,13.474,13.474,13.474h102.948 C162.855,491.787,161.684,487.206,161.684,482.358z M291.032,482.358V29.642c0-4.848,1.171-9.429,3.242-13.474H191.326 c-7.43,0-13.474,6.044-13.474,13.474v315.284h83.537c4.465,0,8.084,3.618,8.084,8.084c0,4.466-3.62,8.084-8.084,8.084h-83.537 v121.263c0,7.43,6.044,13.474,13.474,13.474h102.948C292.202,491.787,291.032,487.206,291.032,482.358z M463.495,361.095H307.2 v121.263c0,7.43,6.044,13.474,13.474,13.474h129.347c7.43,0,13.474-6.044,13.474-13.474V361.095z M463.495,29.642 c0-7.43-6.044-13.474-13.474-13.474H320.674c-7.43,0-13.474,6.044-13.474,13.474v315.284h156.295V29.642z M417.684,129.347H353.01 c-4.465,0-8.084,3.618-8.084,8.084c0,4.466,3.62,8.084,8.084,8.084h64.674c4.465,0,8.084-3.618,8.084-8.084 C425.768,132.966,422.149,129.347,417.684,129.347z M261.389,97.011h-37.731c-4.465,0-8.084,3.618-8.084,8.084 c0,4.466,3.62,8.084,8.084,8.084h37.731c4.465,0,8.084-3.618,8.084-8.084C269.474,100.629,265.855,97.011,261.389,97.011z M334.147,439.242v-21.558c0-10.401,8.463-18.863,18.863-18.863h64.674c10.401,0,18.863,8.463,18.863,18.863v21.558 c0,10.401-8.463,18.863-18.863,18.863H353.01C342.61,458.105,334.147,449.643,334.147,439.242z M350.316,439.242 c0,1.486,1.209,2.695,2.695,2.695h64.674c1.485,0,2.695-1.208,2.695-2.695v-21.558c0-1.486-1.209-2.695-2.695-2.695H353.01 c-1.485,0-2.695,1.208-2.695,2.695V439.242z"></path></svg>