<!-- icon666.com - MILLIONS vector ICONS FREE --><svg version="1.1" id="Capa_1" xmlns="http://www.w3.org/2000/svg" xmlns:xlink="http://www.w3.org/1999/xlink" x="0px" y="0px" viewBox="0 0 511.999 511.999" style="enable-background:new 0 0 511.999 511.999;" xml:space="preserve"><path style="fill:#80D8FF;" d="M433.056,73.972v191.266c0,34.2-27.724,61.924-61.924,61.924H37.699 c-16.54,0-29.963-13.414-29.963-29.963V73.972L433.056,73.972L433.056,73.972z"></path><path style="fill:#40C4FF;" d="M433.056,122.442v142.796c0,34.2-27.724,61.924-61.924,61.924H257.78 c3.985-2.777,8.1-5.373,12.325-7.8c-11.566-16.38-18.368-36.356-18.368-57.889v-53.664c-15.461-6.512-26.338-21.813-26.338-39.602 v-55.782h177.693C414.319,112.425,424.697,116.149,433.056,122.442z"></path><rect x="7.741" y="7.553" style="fill:#B0BEC5;" width="425.311" height="66.419"></rect><polygon style="fill:#7CB342;" points="320.109,220.971 320.639,221.791 319.38,221.791 "></polygon><rect x="7.741" y="73.969" style="fill:#40C4FF;" width="425.311" height="19.976"></rect><path style="fill:#D8D7DA;" d="M325.727,403.369v-29.564l-26.767-9.518c-3.566-8.59-5.353-12.924-8.919-21.514l12.205-25.659 c-4.185-4.175-6.702-6.692-8.879-8.869c-3.256-3.266-5.773-5.783-12.025-12.035l-25.659,12.205 c-8.59-3.566-12.924-5.353-21.514-8.919l-9.518-26.767h-29.564l-9.518,26.767c-8.59,3.566-12.924,5.353-21.514,8.919l-25.659-12.205 c-10.437,10.437-10.467,10.467-20.904,20.904l12.205,25.659c-3.566,8.59-5.353,12.924-8.919,21.514l-26.767,9.518v29.564 l26.767,9.518c3.566,8.59,5.353,12.924,8.919,21.514l-12.205,25.659l20.904,20.904l25.659-12.205 c8.36,3.476,12.695,5.254,20.845,8.639c0.22,0.09,0.439,0.19,0.669,0.28l9.518,26.767h29.564l9.518-26.767 c8.59-3.566,12.924-5.353,21.514-8.919l25.659,12.205l20.904-20.904l-12.205-25.659c3.566-8.59,5.353-12.924,8.919-21.514 L325.727,403.369z M209.869,418.551c-6.113,0-11.796-1.828-16.53-4.984c-8.1-5.353-13.434-14.542-13.434-24.98 c0-16.55,13.414-29.963,29.963-29.963c4.195,0,8.2,0.869,11.826,2.437c10.667,4.574,18.138,15.181,18.138,27.526 C239.832,405.137,226.419,418.551,209.869,418.551z"></path><path style="fill:#B0BEC5;" d="M209.869,328.661c-33.044,0-59.927,26.883-59.927,59.927s26.883,59.927,59.927,59.927 s59.927-26.883,59.927-59.927S242.912,328.661,209.869,328.661z M209.869,418.551c-16.549,0-29.963-13.415-29.963-29.963 s13.415-29.963,29.963-29.963s29.963,13.415,29.963,29.963S226.418,418.551,209.869,418.551z"></path><path style="fill:#ACABB1;" d="M298.96,412.887c-3.566,8.59-5.353,12.924-8.919,21.514l12.205,25.659l-20.904,20.904l-25.659-12.205 c-8.59,3.566-12.924,5.353-21.514,8.919l-9.518,26.767h-29.564l-9.518-26.767c-0.23-0.09-0.449-0.19-0.669-0.28v-10.787 c0-18.248,2.867-36.086,8.44-53.045c4.734,3.156,10.417,4.984,16.53,4.984c16.55,0,29.963-13.414,29.963-29.963 c0-12.345-7.471-22.952-18.138-27.526c18.827-23.751,43.407-41.879,71.673-52.816c2.177,2.177,4.694,4.694,8.879,8.869 l-12.205,25.659c3.566,8.59,5.353,12.924,8.919,21.514l26.767,9.518v29.564L298.96,412.887z"></path><path style="fill:#90A4AE;" d="M221.699,361.054c10.664,4.588,18.133,15.187,18.133,27.532c0,16.549-13.415,29.963-29.963,29.963 c-6.112,0-11.794-1.834-16.532-4.976c-3.217,9.79-5.525,19.875-6.908,30.161c7.204,3.073,15.127,4.778,23.44,4.778 c33.044,0,59.927-26.883,59.927-59.927c0-20.794-10.65-39.14-26.776-49.891C235.297,345.452,228.154,352.914,221.699,361.054z"></path><path style="fill:#B0EF60;" d="M504.509,510.938v-44.331c0-65.997-42.675-122.025-101.936-142 c-13.777,10.967-31.211,17.537-50.189,17.537l0,0c-18.328,0-35.219-6.122-48.764-16.418 c-57.595,20.883-98.745,76.075-98.745,140.881v44.331H504.509z"></path><path style="fill:#64DD17;" d="M422.914,333.199c-6.519-3.34-13.311-6.222-20.34-8.591c-13.777,10.967-31.211,17.537-50.189,17.537 l0,0c-18.328,0-35.219-6.122-48.764-16.418c-6.966,2.526-13.689,5.558-20.131,9.044c18.02,16.948,42.264,27.349,68.896,27.349 C379.83,362.12,404.739,351.073,422.914,333.199z"></path><path style="fill:#FDD8A8;" d="M352.385,342.144L352.385,342.144c-44.554,0-80.671-36.118-80.671-80.671v-70.299h161.341v70.299 C433.055,306.026,396.938,342.144,352.385,342.144z"></path><path style="fill:#616161;" d="M433.055,191.175H268.346c-12.688,0-22.972-10.284-22.972-22.972V132.4h157.72 c16.547,0,29.959,13.414,29.959,29.959v28.815H433.055z"></path><g><path style="fill:#FFC477;" d="M352.385,322.169L352.385,322.169c-44.554,0-80.671-36.118-80.671-80.671v19.976 c0,44.554,36.118,80.671,80.671,80.671l0,0c44.554,0,80.671-36.118,80.671-80.671v-19.976 C433.055,286.051,396.938,322.169,352.385,322.169z"></path><rect x="271.718" y="191.176" style="fill:#FFC477;" width="161.343" height="19.976"></rect></g><path style="fill:#424242;" d="M245.375,146.23v21.973c0,12.688,10.285,22.972,22.972,22.972h164.709v-21.973H268.347 C255.66,169.201,245.375,158.916,245.375,146.23z"></path><rect x="140.578" y="33.268" width="234.713" height="14.982"></rect><rect x="390.274" y="33.268" width="14.982" height="14.982"></rect><rect x="252.702" y="435.028" width="14.982" height="75.907"></rect><rect x="441.701" y="435.028" width="14.982" height="75.907"></rect><path d="M440.546,261.473V0.062H0v297.137c0,20.653,16.801,37.454,37.454,37.454h80.085l3.962,8.329l-6.369,15.362l-28.613,10.175 v40.137l28.612,10.176l6.369,15.362l-13.046,27.425l28.383,28.383l27.425-13.046l15.362,6.369l10.176,28.612h15.075v-0.999h7.491 v-44.331c0-58.412,36.091-111.134,90.191-132.445c14.185,9.754,31.351,15.473,49.828,15.473c19.197,0,36.977-6.171,51.469-16.629 c55.886,20.543,93.163,73.74,93.163,133.601v44.331h14.982v-44.331c0-63.452-37.897-120.134-95.49-144.698 C431.402,306.115,440.546,284.843,440.546,261.473 M425.565,162.36v21.324H268.347c-8.537,0-15.481-6.945-15.481-15.481v-28.311 h150.23C415.485,139.891,425.565,149.97,425.565,162.36L425.565,162.36z M14.982,15.044h410.583v51.437H14.982V15.044z M108.456,315.557l1.957,4.114H37.454c-12.391,0-22.473-10.082-22.473-22.473V81.462h410.583v50.956 c-6.263-4.712-14.045-7.509-22.469-7.509H237.885v43.293c0,15.397,11.486,28.156,26.339,30.176v63.095 c0,11.194,2.101,21.906,5.924,31.767l-14.673,6.979l-15.362-6.369l-10.176-28.612h-40.137l-10.176,28.612l-15.362,6.369 l-27.425-13.046L108.456,315.557z M207.624,410.947c-11.341-1.131-20.227-10.727-20.227-22.36c0-12.391,10.082-22.473,22.473-22.473 c6.87,0,13.233,3.109,17.454,8.325C219.211,385.657,212.572,397.932,207.624,410.947z M236.802,362.566 c-6.953-7.21-16.597-11.433-26.933-11.433c-20.653,0-37.454,16.801-37.454,37.454c0,18.278,13.163,33.53,30.506,36.798 c-1.31,4.798-2.398,9.674-3.251,14.615c-24.163-4.78-42.236-26.168-42.236-51.412c0-28.913,23.523-52.436,52.436-52.436 c14.24,0,27.509,5.646,37.332,15.67C243.562,355.241,240.092,358.828,236.802,362.566z M258.626,342.064 c-12.692-13.364-30.077-20.895-48.757-20.895c-37.175,0-67.418,30.243-67.418,67.418c0,32.829,23.772,60.584,55.376,66.306 c-0.291,3.877-0.443,7.784-0.443,11.714v21.94l-5.872-16.513l-27.664-11.473l-23.894,11.367l-13.427-13.427l11.367-23.894 l-11.473-27.664l-24.92-8.861v-18.991l24.92-8.861l11.473-27.664l-11.367-23.894l13.427-13.427l23.894,11.367l27.664-11.473 l8.861-24.92h18.991l8.861,24.92l27.664,11.473l20.845-9.916c3.636,6.058,7.977,11.645,12.91,16.648 C278.493,328.415,268.107,334.722,258.626,342.064z M352.385,334.654c-40.352,0-73.181-32.828-73.181-73.181v-62.808h146.359v62.808 C425.565,301.825,392.737,334.654,352.385,334.654z"></path><rect x="310.9" y="240.156" width="17.287" height="14.982"></rect><rect x="381.195" y="240.156" width="17.287" height="14.982"></rect><g><path style="fill:#FFFFFF;" d="M104.622,48.253H89.641V33.271h14.982V48.253z M74.659,48.253H59.677V33.271h14.982V48.253z M44.695,48.253H29.714V33.271h14.982V48.253z"></path><path style="fill:#FFFFFF;" d="M159.886,256.963l-33.037-63.069L85.041,240.68l-37.482-68.447l13.14-7.196l27.3,49.851l42.09-47.1 l32.883,62.777l28.002-32.245h33.379v14.982h-26.548L159.886,256.963z M40.362,159.092l-6.356-11.608l13.14-7.196l6.356,11.608 L40.362,159.092z"></path><rect x="84.517" y="119.413" style="fill:#FFFFFF;" width="139.829" height="14.982"></rect><rect x="40.575" y="275.223" style="fill:#FFFFFF;" width="80.901" height="14.982"></rect><path style="fill:#FFFFFF;" d="M407.318,431.036h-14.982v-14.982h14.982V431.036z M377.354,431.036h-79.902v-14.982h79.902V431.036 z"></path><path style="fill:#FFFFFF;" d="M407.318,460.5h-49.939v-14.982h49.939V460.5z M342.397,460.5h-14.982v-14.982h14.982V460.5z M312.434,460.5h-14.982v-14.982h14.982V460.5z"></path><path style="fill:#FFFFFF;" d="M407.318,489.964h-14.982v-14.982h14.982V489.964z M377.354,489.964h-49.939v-14.982h49.939V489.964 z M312.434,489.964h-14.982v-14.982h14.982V489.964z"></path></g></svg>