<!-- icon666.com - MILLIONS OF FREE VECTOR ICONS --><svg viewBox="0 0 128 128" xmlns="http://www.w3.org/2000/svg"><g><path d="m114.494 64v28.847h-86.565a14.424 14.424 0 0 1 -14.423-14.424 14.424 14.424 0 0 1 14.423-14.423z" fill="#3da4ab"></path><path d="m27.929 70.772a7.651 7.651 0 0 0 -7.651 7.651 7.652 7.652 0 0 0 7.651 7.652h86.565v-15.3z" fill="#faf5e4"></path><path d="m114.494 121.694h-86.565a14.424 14.424 0 0 1 -14.423-14.424 14.423 14.423 0 0 1 14.423-14.423h86.565z" fill="#f6cd61"></path><path d="m52.445 75.227h23.11v10.848h-23.11z" fill="#3da4ab"></path><path d="m73.041 86.075-2.101 6.772h-13.88l-2.101-6.772z" fill="#fe8a71"></path><path d="m75.555 75.227v-4.021a15.849 15.849 0 0 1 4.929-11.33 23.636 23.636 0 1 0 -32.968 0 15.849 15.849 0 0 1 4.929 11.33v4.021z" fill="#f6cd61"></path><path d="m46.712 70.772v10.339l-4.217-4.217-4.216 4.217v-10.339z" fill="#fe8a71"></path><path d="m114.494 114.922h-86.565a7.652 7.652 0 0 1 -7.651-7.652 7.652 7.652 0 0 1 7.651-7.652h86.565z" fill="#faf5e4"></path><path d="m46.712 99.618v10.339l-4.217-4.216-4.216 4.216v-10.339z" fill="#fe8a71"></path><g fill="#2b1e0c"><path d="m78.083 39.21a1.75 1.75 0 0 0 1.69 1.3 1.777 1.777 0 0 0 .448-.058 1.75 1.75 0 0 0 1.245-2.139 18.051 18.051 0 0 0 -4.844-8.3 1.75 1.75 0 1 0 -2.446 2.5 14.564 14.564 0 0 1 3.907 6.697z"></path><path d="m66.682 28.624a14.449 14.449 0 0 1 3.075.936 1.768 1.768 0 0 0 .692.142 1.75 1.75 0 0 0 .693-3.357 17.97 17.97 0 0 0 -3.82-1.162 1.75 1.75 0 0 0 -.64 3.441z"></path><path d="m64 14.98a1.75 1.75 0 0 0 1.75-1.75v-6.923a1.75 1.75 0 0 0 -3.5 0v6.923a1.75 1.75 0 0 0 1.75 1.75z"></path><path d="m93.712 44.692h6.924a1.75 1.75 0 0 0 0-3.5h-6.924a1.75 1.75 0 0 0 0 3.5z"></path><path d="m27.364 44.692h6.924a1.75 1.75 0 0 0 0-3.5h-6.924a1.75 1.75 0 1 0 0 3.5z"></path><path d="m41.753 23.17a1.75 1.75 0 0 0 2.475-2.47l-4.9-4.895a1.75 1.75 0 1 0 -2.475 2.474z"></path><path d="m85.01 23.683a1.743 1.743 0 0 0 1.237-.513l4.9-4.9a1.75 1.75 0 1 0 -2.479-2.47l-4.9 4.895a1.751 1.751 0 0 0 1.238 2.988z"></path><path d="m114.494 62.25h-33.831c.326-.386.671-.76 1.041-1.12a25.386 25.386 0 1 0 -35.408 0q.553.54 1.04 1.12h-11.642a1.75 1.75 0 0 0 0 3.5h13.84a13.636 13.636 0 0 1 .964 3.271h-22.568a9.4 9.4 0 1 0 0 18.8h25.739l1.016 3.279h-26.755a12.674 12.674 0 1 1 0-25.347 1.75 1.75 0 1 0 0-3.5 16.161 16.161 0 0 0 -7.279 30.6 16.161 16.161 0 0 0 7.279 30.6h58.494a1.75 1.75 0 0 0 0-3.5h-58.494a12.673 12.673 0 1 1 0-25.346h84.814v3.271h-84.814a9.4 9.4 0 1 0 0 18.8h84.814v3.271h-4.927a1.75 1.75 0 0 0 0 3.5h6.677a1.75 1.75 0 0 0 1.75-1.75v-57.699a1.75 1.75 0 0 0 -1.75-1.75zm-60.294 22.075v-7.348h19.61v7.348zm4.251-32.561h-2.07a2.071 2.071 0 1 1 2.07-2.072zm7.608 21.713h-4.113v-18.213h4.108zm11.251 1.75v-2.706h35.439v11.8h-35.444zm35.439-9.477v3.271h-35.249a13.636 13.636 0 0 1 .964-3.271zm-70.635-22.808a21.886 21.886 0 1 1 37.149 15.68 18.433 18.433 0 0 0 -3.446 4.6c-.021.041-.044.081-.062.125a17.024 17.024 0 0 0 -1.911 7.1 1.758 1.758 0 0 0 -.033.326c0 .037.009.07.011.106 0 .11-.017.219-.017.329v2.271h-4.251v-18.215h2.07a5.571 5.571 0 1 0 -5.57-5.572v2.072h-4.108v-2.072a5.571 5.571 0 1 0 -5.57 5.572h2.07v18.213h-4.246v-2.271c0-.11-.015-.219-.017-.329 0-.036.011-.069.011-.106a1.758 1.758 0 0 0 -.033-.326 17.006 17.006 0 0 0 -1.913-7.1c-.016-.04-.037-.077-.056-.115a18.446 18.446 0 0 0 -3.45-4.606 21.7 21.7 0 0 1 -6.628-15.682zm27.44 8.822v-2.072a2.071 2.071 0 1 1 2.07 2.072zm-29.525 20.757h4.933v4.365l-1.229-1.229a1.751 1.751 0 0 0 -2.475 0l-1.229 1.229zm-18 5.9a5.909 5.909 0 0 1 5.9-5.9h8.6v8.589a1.75 1.75 0 0 0 2.988 1.238l2.983-2.979 2.979 2.979a1.747 1.747 0 0 0 1.237.512 1.781 1.781 0 0 0 .67-.132 1.752 1.752 0 0 0 1.08-1.618v-8.589h2.234v11.8h-22.77a5.908 5.908 0 0 1 -5.902-5.897zm36.32 12.679-1.015-3.272h13.332l-1.015 3.272zm14.966 0 1.016-3.272h38.413v3.272zm-33.286 10.268h4.933v4.364l-1.229-1.232a1.749 1.749 0 0 0 -2.475 0l-1.229 1.228zm-12.1 11.8a5.9 5.9 0 1 1 0-11.8h8.6v8.589a1.75 1.75 0 0 0 2.988 1.237l2.979-2.978 2.979 2.978a1.749 1.749 0 0 0 2.987-1.237v-8.589h64.282v11.8z"></path><path d="m99.161 119.943h-4.5a1.75 1.75 0 0 0 0 3.5h4.5a1.75 1.75 0 0 0 0-3.5z"></path></g></g></svg>