<!-- icon666.com - MILLIONS vector ICONS FREE --><svg version="1.1" id="Capa_1" xmlns="http://www.w3.org/2000/svg" xmlns:xlink="http://www.w3.org/1999/xlink" x="0px" y="0px" viewBox="0 0 511.998 511.998" style="enable-background:new 0 0 511.998 511.998;" xml:space="preserve"><path style="fill:#A9A499;" d="M345.186,403.533c-6.242-7.188-13.335-13.612-21.125-19.116 c-19.471-13.757-43.278-21.767-68.938-21.571c-0.309,0.002-0.613,0.021-0.922,0.025l-59.023,71.396l59.023,70.229 c0.668,0,1.334,0.006,2.002,0.001c24.505-0.187,48.219-3.634,70.754-9.893c0.46-0.128,0.92-0.254,1.379-0.385 c3.496-0.991,6.962-2.049,10.399-3.174c5.984-1.96,11.865-4.144,17.658-6.499c3.536-1.437,7.046-2.923,10.505-4.504 c2.383-1.089,4.749-2.206,7.094-3.362C373.009,448.712,362.309,423.251,345.186,403.533z"></path><path style="fill:#FFF9EB;" d="M186.522,385.47c-7.705,5.622-14.7,12.154-20.831,19.436c-16.82,19.977-27.131,45.598-27.687,73.579 c11.41,5.408,23.26,10.03,35.472,13.825c3.453,1.073,6.936,2.078,10.446,3.015c0.461,0.123,0.923,0.243,1.385,0.363 c22.011,5.753,45.098,8.819,68.895,8.811V362.875C228.897,363.263,205.55,371.587,186.522,385.47z"></path><path style="fill:#F1EBDE;" d="M165.691,404.903c-16.82,19.977-27.131,45.598-27.687,73.579c15.08,7.147,30.947,12.93,47.303,17.204 C185.127,472.215,187.163,441.413,165.691,404.903z"></path><path style="fill:#E2DDD0;" d="M326.846,480.018c-0.171-22.356-18.585-41.651-40.941-41.849c-11.537-0.102-15.04,4.292-31.705,4.071 c-14.948-0.198-17.795-3.873-28.709-3.61c-21.874,0.527-40.472,19.494-40.295,42.8l0.109,14.256 c44.981,11.756,94.13,12.117,141.651-1.081C326.929,490.793,326.854,481.049,326.846,480.018z"></path><path style="fill:#A9A499;" d="M316.138,381.504l-18.654-18.654H254.2l-36.594,59.023l36.594,70.828l47.51-47.51 c5.634-5.634,5.634-14.77,0-20.404l-4.226-4.226l18.654-18.654C321.773,396.273,321.773,387.138,316.138,381.504z"></path><path style="fill:#D4CFC2;" d="M210.917,362.85l-18.654,18.654c-5.634,5.634-5.634,14.77,0,20.404l18.654,18.654l-4.226,4.226 c-5.634,5.634-5.634,14.77,0,20.404l47.51,47.51V362.85H210.917z"></path><polygon style="fill:#E7AF62;" points="206.982,386.722 254.069,433.678 301.42,386.459 "></polygon><path style="fill:#936C56;" d="M50.762,265.719c-10.253,22.17-19.66,43.951-17.135,65.364c1.044,8.857,7.384,16.202,16.028,18.397 c29.916,7.595,60.133,13.455,90.522,17.615c43.363,5.937,68.442-47.676,36.171-77.243l-44.16-40.459 C106.518,225.874,65.376,234.119,50.762,265.719z"></path><path style="fill:#6F4F3C;" d="M438.97,195.189v-19.753c0-18.608-6.978-36.528-19.545-50.251 c-22.537-24.611-61.75-63.901-102.538-88.356C253.972-0.893,179.723-0.183,150.807,27.5s-9.966,45.534-9.966,45.534l94.762,223.16 c20.903,49.226,71.933,78.57,125.003,71.957c34.384-4.285,68.588-10.62,102.427-18.954c8.08-1.99,14.283-8.578,15.628-16.79 C485.8,288.82,438.97,242.549,438.97,195.189z"></path><path style="fill:#F3CC82;" d="M255.998,39.403c0,0-139.166,66.776-158.923,141.514c-7.715-3.926-16.508-6.037-25.827-5.731 c-27.702,0.91-50.33,23.466-51.309,51.166c-1.068,30.216,23.11,55.047,53.087,55.047c7.638,0,14.893-1.624,21.456-4.527 c2.227,16.557,5.462,33.774,9.747,48.164c5.309,17.83,21.671,30.07,40.274,30.07h72.923c100.321,0,184.965-74.655,197.498-174.19 l0,0C395.167,106.178,255.998,39.403,255.998,39.403z"></path><g><path style="fill:#E7AF62;" d="M440.747,175.186c-9.32-0.306-18.114,1.806-25.83,5.733c-1.17-4.427-2.495-8.826-3.967-13.184 c-7.871-23.307-42.188-17.553-42.018,7.046c0.003,0.391,0.004,0.781,0.004,1.172c0,32.496-9.025,108.21-28.272,126.828 c-26.919,26.038-90.574,38.437-136.704,38.437c-30.746,0-69.521-5.516-99.943-16.899c4.038,13.756,9.021,25.017,14.987,30.788 c26.919,26.038,91.151,38.437,137.281,38.437s109.786-12.399,136.704-38.437c12.144-11.747,20.217-46.224,24.523-78.234 c6.563,2.902,13.818,4.527,21.456,4.527c29.977,0,54.154-24.83,53.087-55.045C491.079,198.653,468.45,176.095,440.747,175.186z"></path><circle style="fill:#E7AF62;" cx="73.028" cy="228.28" r="17.707"></circle></g><circle style="fill:#DC9241;" cx="438.968" cy="228.28" r="17.707"></circle><path style="fill:#6F4F3C;" d="M255.998,39.403c-75.496,0-139.166,66.776-158.923,141.514c12.261,6.239,21.775,17.094,26.254,30.277 c0.286,0.843,1.061,1.42,1.951,1.42l0,0c1.036,0,1.9-0.77,2.038-1.796c4.931-36.679,25.172-68.505,54.087-88.833 c4.368,23.831,15.243,45.384,30.713,62.757c5.688,6.388,13.203,10.874,21.491,12.988l30.901,7.88 c5.138,2.309,11.022,0.465,14.549-3.927c0.186-0.232,0.38-0.454,0.582-0.666c14.915-15.689,78.384-15.489,93.571,0 c1.602,1.634,2.782,3.876,3.589,6.528c0.674,2.216,2.311,4.079,4.525,4.758c3.462,1.063,7.077-0.674,8.357-3.85 c4.812-11.942,13.836-21.733,25.236-27.534C395.164,106.179,331.494,39.403,255.998,39.403z"></path><path style="fill:#936C56;" d="M150.807,27.5c-28.916,27.683-9.967,45.534-9.967,45.534c-44.849,11.299-67.815,46.464-67.815,86.653 v15.47c23.108,0,43.115,14.885,50.303,36.037c0.707,2.081,3.698,1.788,3.989-0.377c4.909-36.515,25.055-68.422,54.087-88.833 c4.368,23.831,15.243,45.384,30.713,62.757c10.621,11.927,19.909,12.584,52.392,20.867c3.689,1.658,7.759,1.165,11.068-0.865 c-2.88-3.602-6.702-6.49-11.235-8.217c-6.81-4.349-26.785-23.155-32.39-29.449c-27.013-30.337-33.551-76.065-17.37-98.973 c8.11-11.481,22.904-18.422,43.974-20.629c0.101-0.007,0.207-0.014,0.318-0.021c19.315-1.219,22.109-28.625,3.412-33.624 C212.053,0.4,169.154,9.935,150.807,27.5z"></path><path style="fill:#C4E2D8;" d="M232.354,201.014c-14.903-15.677-78.378-15.496-93.571,0c-10.113,10.314-3.776,46.942,10.319,55.069 c15.839,9.133,57.975,8.39,71.508-1.36C232.705,246.009,242.364,211.544,232.354,201.014z"></path><path style="fill:#8BD4DC;" d="M232.354,201.014c-4.211-4.429-12.299-7.592-22.079-9.501c-0.789,13.979-7.762,31.237-15.828,37.048 c-10.674,7.691-39.137,9.772-58.461,5.828c2.515,9.579,7.107,18.229,13.116,21.694c15.839,9.133,57.975,8.39,71.508-1.36 C232.705,246.009,242.364,211.544,232.354,201.014z"></path><path style="fill:#C4E2D8;" d="M373.214,201.014c-15.182-15.483-78.654-15.692-93.571,0c-10.01,10.53-0.351,44.995,11.745,53.71 c0.138,0.099,0.297,0.191,0.441,0.288c14.636,9.924,59.45,10.161,73.16-0.288C376.695,245.8,383.316,211.317,373.214,201.014z"></path><path style="fill:#8BD4DC;" d="M373.214,201.014c-4.136-4.218-11.86-7.3-21.205-9.238c0.055,13.86-5.454,30.893-13.184,36.784 c-10.749,8.193-40.613,9.814-60.067,5.35c2.946,9.017,7.571,17.168,12.63,20.813c0.138,0.099,0.297,0.191,0.441,0.288 c14.636,9.924,59.45,10.161,73.16-0.288C376.695,245.8,383.316,211.317,373.214,201.014z"></path><path style="fill:#E7AF62;" d="M113.059,428.67l-4.819,23.302l17.777-5.162c4.531,6.343,13.673,7.1,19.184,1.588l0,0 c4.36-4.36,4.929-11.234,1.345-16.252l-12.958-18.141c-4.531-6.343-13.673-7.1-19.184-1.588l0,0 C110.044,416.779,109.475,423.652,113.059,428.67z"></path><path style="fill:#F3CC82;" d="M126.315,483.979L126.315,483.979c-9.983,9.983-26.169,9.983-36.152,0l-6.965-6.965 c-13.83-13.83-13.83-36.253,0-50.083l0,0c8.739-8.739,23.233-7.539,30.417,2.517l15.426,21.597 C136.304,461.213,135.152,475.143,126.315,483.979z"></path><path d="M255.998,278.261c7.042,0,13.622-2.966,18.528-8.351c2.79-3.062,2.57-7.806-0.492-10.595 c-3.063-2.791-7.806-2.57-10.595,0.492c-2.059,2.26-4.632,3.454-7.441,3.454c-2.809,0-5.382-1.194-7.441-3.454 c-2.789-3.062-7.532-3.281-10.595-0.492c-3.062,2.79-3.282,7.533-0.492,10.595C242.376,275.296,248.956,278.261,255.998,278.261z"></path><path d="M499.591,228.274c0-31.005-23.401-56.632-53.466-60.185c-1.597-17.83-8.97-34.653-21.167-47.973 c-25.235-27.558-63.8-65.494-104.214-89.725c-17.518-10.504-36.378-18.468-56.059-23.676c-0.15-0.048-0.303-0.094-0.459-0.136 c-18.391-4.916-36.564-7.092-54.019-6.477l-0.976,0.033c-25.453,1.059-47.858,8.35-61.462,20c-0.006,0.005-0.083,0.071-0.089,0.076 c-0.718,0.618-1.411,1.245-2.059,1.865c-12.241,11.719-18.423,23.601-18.376,35.315c0.018,4.397,0.917,8.164,2.126,11.25 c-39.644,13.84-63.844,47.918-63.844,91.041v8.41c-7.82,1.009-15.528,3.577-22.731,7.706c-19.029,10.909-30.39,30.526-30.39,52.476 c0,19.506,9.283,37.586,24.976,48.978c-2.387,5.618-4.27,10.505-5.812,15.075c-1.325,3.925,0.783,8.18,4.708,9.504 c0.795,0.269,1.604,0.396,2.399,0.396c3.129,0,6.049-1.974,7.105-5.104c1.288-3.817,2.86-7.925,4.808-12.581 c12.022,4.822,25.23,5.68,37.766,2.39c3.769,24.459,10.119,52.284,20.531,67.612c-16.789-2.983-33.447-6.47-49.766-10.442 c-2.572-0.626-5.141-1.266-7.708-1.918l-23.697-33.178c-2.387-3.342-7.044-4.417-10.456-2.131c-3.53,2.365-4.385,7.16-1.933,10.593 l70.465,98.657c-2.904,1.344-5.585,3.19-7.896,5.5c-16.732,16.732-16.732,43.958,0,60.69l6.965,6.965 c6.445,6.446,14.912,9.669,23.379,9.669s16.934-3.223,23.379-9.669c1.292-1.292,2.45-2.67,3.488-4.109l5.757,8.06 c1.464,2.049,3.769,3.141,6.109,3.141c1.686,0,3.39-0.567,4.81-1.751c3.043-2.539,3.446-7.086,1.143-10.311l-11.663-16.33 c0.186-2.96-0.026-5.945-0.646-8.876c3.704-0.816,7.142-2.659,9.888-5.406c6.141-6.141,7.573-15.311,3.924-22.898 c2.039-0.437,3.888-1.71,4.984-3.674c1.593-2.855,3.318-5.647,5.164-8.358c8.432,17.655,12.925,37.081,13.076,56.815l0.154,20.101 v8.814c0,4.142,3.358,7.5,7.5,7.5s7.5-3.358,7.5-7.5v-8.871l-0.154-20.158c-0.186-24.329-6.322-48.242-17.778-69.521 c4.102-4.222,8.706-7.966,14.268-12.089c3.444,0.732,6.954,1.413,10.526,2.04c2.341,0.411,4.693,0.794,7.054,1.152l39.847,39.737 v37.673l-34.575-34.575c-1.309-1.309-2.029-3.048-2.029-4.898c0-1.851,0.72-3.59,2.029-4.899l4.226-4.226 c2.929-2.929,2.929-7.678,0-10.607s-7.678-2.929-10.606,0l-4.226,4.226c-8.55,8.549-8.55,22.461,0,31.011l46.646,46.647 c1.365,1.853,3.556,3.06,6.035,3.06c0.022,0,0.042-0.003,0.064-0.003c0.023,0,0.045,0.003,0.068,0.003 c1.919,0,3.839-0.732,5.304-2.197l47.51-47.51c8.549-8.55,8.549-22.461-0.001-31.011l-4.227-4.226 c-2.928-2.929-7.677-2.928-10.606,0c-2.929,2.929-2.929,7.678,0.001,10.607l4.226,4.226c2.701,2.701,2.701,7.096,0,9.797 l-34.838,34.839v-37.937l39.189-39.08c7.487-1.023,14.879-2.305,22.128-3.847c4.244,3.158,8.771,6.777,13.069,10.983 c-11.087,21.42-16.837,45.377-16.651,69.658l0.154,20.101v9.895c0,4.142,3.357,7.5,7.5,7.5s7.5-3.358,7.5-7.5v-9.952l-0.154-20.158 c-0.15-19.729,4.045-39.221,12.204-56.999c12.216,17.422,19.238,38.188,19.989,59.554c0.145,4.14,3.593,7.357,7.759,7.232 c4.139-0.146,7.377-3.619,7.231-7.759c-0.941-26.821-10.586-52.809-27.274-73.758c-0.011-0.015-0.021-0.03-0.032-0.045l0,0 c-0.006-0.007-0.012-0.014-0.017-0.021c-0.003-0.003-0.005-0.005-0.007-0.008c-0.463-0.58-0.936-1.156-1.411-1.73 c-0.059-0.071-0.116-0.144-0.175-0.215c-0.569-0.684-1.144-1.362-1.722-2.027c-0.01-0.011-0.021-0.019-0.03-0.03 c-0.205-0.233-0.423-0.451-0.652-0.655c-0.015-0.014-0.029-0.031-0.044-0.044c-2.888-3.143-5.894-5.974-8.897-8.571 c13.342-3.81,27.865-9.148,40.372-16.488c27.872-4.123,55.797-9.599,83.027-16.298c11.195-2.754,19.61-11.746,21.438-22.909 c2.986-18.228-2.065-36.089-10.985-56.692C490.493,265.503,499.591,247.581,499.591,228.274z M121.012,478.675 c-7.043,7.042-18.502,7.043-25.545,0l-6.965-6.965c-10.884-10.884-10.884-28.593,0-39.477c2.377-2.377,5.477-3.661,8.798-3.661 c0.258,0,0.518,0.008,0.778,0.023c3.57,0.214,6.878,1.942,9.076,4.741c0.12,0.152,0.24,0.304,0.358,0.47l15.426,21.597 C128.091,462.619,127.281,472.406,121.012,478.675z M139.897,443.094c-1.458,1.458-3.15,1.551-4.038,1.481 c-0.882-0.073-2.541-0.446-3.74-2.125l-12.397-17.356c-0.118-0.165-0.237-0.327-0.358-0.486c-0.065-0.101-0.132-0.2-0.202-0.298 c-1.459-2.043-1.23-4.814,0.545-6.589c1.458-1.458,3.154-1.554,4.039-1.48c0.882,0.073,2.541,0.446,3.74,2.125l12.958,18.14 C141.902,438.548,141.673,441.319,139.897,443.094z M159.984,400.039c-0.01,0.011-0.021,0.02-0.03,0.032 c-5.034,5.978-9.521,12.453-13.353,19.248l-6.909-9.673c-3.443-4.821-8.805-7.866-14.708-8.355 c-5.9-0.493-11.693,1.634-15.882,5.823c-2.156,2.156-3.727,4.686-4.707,7.389c-0.527-0.14-1.059-0.262-1.595-0.371l-38.055-53.281 c21.916,5.063,44.35,9.279,66.841,12.569c10.8,6.14,24.092,11.523,39.175,15.862C166.877,392.612,163.32,396.082,159.984,400.039z M124.22,349.712c-8.906-8.615-17.244-36.22-22.304-73.844c-0.006-0.048-0.02-0.094-0.028-0.142 c-0.01-0.062-0.013-0.123-0.024-0.185c-0.036-0.202-3.631-20.523-3.631-47.268c0-13.9-11.308-25.207-25.207-25.207 s-25.207,11.308-25.207,25.207c0,4.142,3.358,7.5,7.5,7.5s7.5-3.358,7.5-7.5c0-5.628,4.579-10.207,10.207-10.207 s10.207,4.579,10.207,10.207c0,19.369,1.766,35.356,2.913,43.696c-12.757,3.844-26.611,1.911-38.014-5.515 c-12.979-8.452-20.727-22.725-20.727-38.181c0-16.508,8.542-31.26,22.85-39.462c7.081-4.059,14.804-6.108,22.514-6.172 c0.086,0.003,0.171,0.013,0.258,0.013c0.134,0,0.265-0.013,0.397-0.02c7.792,0.049,15.551,2.132,22.6,6.261 c3.577,2.093,8.168,0.891,10.262-2.682c2.093-3.575,0.892-8.169-2.682-10.262c-7.269-4.256-15.101-6.878-23.077-7.88v-8.387 c0-39.901,23.232-69.576,62.147-79.38c2.656-0.669,4.737-2.734,5.426-5.386c0.689-2.651-0.122-5.468-2.116-7.346 c-0.037-0.035-3.713-3.787-3.739-10.239c-0.029-7.336,4.725-15.779,13.748-24.418c0.47-0.45,0.96-0.892,1.449-1.313 c0.002-0.002,0.075-0.064,0.077-0.066c11.105-9.508,30.181-15.49,52.339-16.412l0.876-0.029c15.922-0.559,32.556,1.432,49.453,5.933 c0.109,0.036,0.22,0.069,0.332,0.102c0.048,0.014,0.096,0.027,0.145,0.04c18.384,4.845,36.003,12.277,52.367,22.089 c40.914,24.531,80.757,65.031,100.864,86.99c9.673,10.565,15.641,23.823,17.175,37.914c-6.798,0.882-13.347,2.913-19.55,6.069 c-12.317,6.268-22.097,16.521-27.773,29.043c-1.083-2.787-2.599-5.368-4.701-7.512c-12.958-13.216-44.323-14.008-53.634-13.937 c-8.838,0.068-38.618,1.281-50.728,14.02c-1.396,1.469-2.555,3.209-3.487,5.182c-5.483-3.803-12.059-5.413-18.676-4.538 c-4.011,0.53-7.733,1.961-10.992,4.068c-0.892-1.781-1.978-3.361-3.263-4.713c-2.116-2.226-4.779-4.093-7.767-5.67 c-0.716-1.189-1.766-2.197-3.104-2.856c-3.663-1.803-6.556-4.066-9.675-7.569c-14.911-16.745-24.917-37.189-28.938-59.121 c-0.461-2.515-2.171-4.621-4.537-5.589c-2.367-0.968-5.063-0.665-7.154,0.806c-29.48,20.726-49.384,51.547-56.045,86.785 c-0.161,0.852-0.163,1.696-0.041,2.508c-3.895,0.272-6.973,3.509-6.973,7.473c0,4.142,3.358,7.5,7.5,7.5h5.299 c0.03,0.905,0.073,1.793,0.134,2.643c0.979,13.568,6.297,30.558,15.972,37.933c10.988,8.375,31.984,9.322,40.89,9.322 c0.12,0,0.238,0,0.354,0c6.716-0.019,29.542-0.739,41.287-9.201l0,0c10.165-7.323,17.093-25.516,18.661-39.435 c1.069-5.278,5.202-9.331,10.357-10.013c3.093-0.406,6.177,0.435,8.688,2.377c2.699,2.086,4.424,5.159,4.857,8.651 c0.169,1.363,0.7,2.591,1.476,3.611c2.408,13.085,8.9,28.274,17.97,34.809l0,0c11.746,8.462,34.571,9.182,41.287,9.201 c0.116,0,0.233,0,0.354,0c8.907,0,29.903-0.948,40.89-9.322c9.676-7.375,14.994-24.366,15.972-37.934 c0.061-0.85,0.104-1.738,0.134-2.642h5.299c4.142,0,7.5-3.358,7.5-7.5c0-1.448-0.417-2.796-1.128-3.942 c4.321-9.063,11.522-16.484,20.535-21.07c6.445-3.28,13.391-4.943,20.642-4.945c0.001,0,0.002,0,0.003,0s0.002,0,0.003,0 c25.155,0,45.621,20.466,45.621,45.622c0,15.462-7.762,29.748-20.764,38.215c-11.402,7.425-25.275,9.336-38.054,5.457 c1.133-8.79,2.989-25.903,2.989-43.671c0-5.628,4.579-10.207,10.207-10.207s10.207,4.579,10.207,10.207c0,4.142,3.357,7.5,7.5,7.5 s7.5-3.358,7.5-7.5c0-13.9-11.308-25.207-25.207-25.207s-25.207,11.308-25.207,25.207c0,23.812-3.622,47.198-3.658,47.432 c-0.005,0.031-0.005,0.061-0.01,0.092c-0.003,0.024-0.01,0.047-0.014,0.071c-5.062,37.624-13.399,65.23-22.306,73.844 c-3.575,3.459-7.826,6.582-12.46,9.394c-0.119,0.067-0.236,0.135-0.35,0.208c-16.585,9.964-37.958,15.958-50.995,18.948 c-39.542,9.067-78.507,9.244-111.798,4.482c-0.557-0.146-1.127-0.228-1.699-0.244C169.964,376.467,138.09,363.129,124.22,349.712z M296.248,248.636c-4.985-3.592-11.391-16.705-12.612-29.779c-0.669-7.164,0.615-11.308,1.919-12.679 c4.173-4.389,18.461-9.189,39.973-9.356c21.839-0.149,38.083,4.621,42.808,9.439c1.632,1.665,3.314,6.699,2.687,15.412 c-0.914,12.668-5.956,23.921-10.104,27.082c-4.097,3.122-15.486,6.252-31.747,6.252c-0.12,0-0.241,0-0.361,0 C314.567,254.967,301.481,252.406,296.248,248.636L296.248,248.636z M144.614,206.261c4.644-4.736,20.391-9.443,41.687-9.443 c0.372,0,0.748,0.001,1.123,0.004c21.51,0.166,35.798,4.966,39.971,9.355c1.304,1.372,2.589,5.515,1.919,12.68 c-0.028,0.299-0.072,0.598-0.106,0.898c-0.04,0.263-0.097,0.519-0.13,0.785c-0.033,0.264-0.05,0.526-0.055,0.785 c-1.732,12.219-7.65,23.944-12.321,27.31c-5.233,3.771-18.319,6.332-32.562,6.372c-0.122,0-0.24,0-0.361,0 c-16.259,0-27.651-3.13-31.747-6.252c-4.148-3.162-9.19-14.414-10.104-27.082C141.299,212.961,142.982,207.926,144.614,206.261z M139.275,191.538c6.876-21.98,19.769-41.465,37.446-56.467c4.75,17.181,12.846,33.295,23.821,47.446 c-5.568-0.542-10.281-0.673-13.003-0.694C179.34,181.76,154.051,182.37,139.275,191.538z M254.069,423.085l-23.403-23.338 c8.414,0.638,16.882,0.975,25.348,0.974c7.068,0,14.13-0.229,21.154-0.672L254.069,423.085z M471.26,331.194 c-0.855,5.225-4.867,9.451-10.22,10.768c-18.953,4.663-38.252,8.712-57.631,12.127c10.233-15.418,16.499-42.932,20.23-67.153 c12.733,3.344,26.146,2.412,38.3-2.599C469.418,301.873,473.606,316.871,471.26,331.194z"></path></svg>