<!-- icon666.com - MILLIONS vector ICONS FREE --><svg version="1.1" id="Capa_1" xmlns="http://www.w3.org/2000/svg" xmlns:xlink="http://www.w3.org/1999/xlink" x="0px" y="0px" viewBox="0 0 512 512" style="enable-background:new 0 0 512 512;" xml:space="preserve"><rect x="23.532" y="191.18" style="fill:#FFDC64;" width="464.94" height="280.56"></rect><rect x="23.532" y="407.62" style="fill:#EBB149;" width="464.94" height="64.13"></rect><rect x="23.532" y="191.18" style="fill:#FFC850;" width="464.94" height="32.753"></rect><rect x="7.5" y="71.63" style="fill:#867E88;" width="497" height="128.26"></rect><g><path style="fill:#6F6571;" d="M280.049,151.791h152.306c4.427,0,8.016-3.589,8.016-8.016V47.581c0-4.427-3.589-8.016-8.016-8.016 H280.049c-4.427,0-8.016,3.589-8.016,8.016v96.194C272.033,148.202,275.622,151.791,280.049,151.791z"></path><path style="fill:#6F6571;" d="M79.645,151.791h152.306c4.427,0,8.016-3.589,8.016-8.016V47.581c0-4.427-3.589-8.016-8.016-8.016 H79.645c-4.427,0-8.016,3.589-8.016,8.016v96.194C71.629,148.202,75.218,151.791,79.645,151.791z"></path></g><rect x="280.05" y="239.97" style="fill:#5D5360;" width="136.27" height="136.27"></rect><g><rect x="280.05" y="239.97" style="fill:#4B3F4E;" width="136.27" height="24.05"></rect><rect x="280.05" y="288.06" style="fill:#4B3F4E;" width="136.27" height="24.05"></rect></g><rect x="95.68" y="239.97" style="fill:#5D5360;" width="136.27" height="136.27"></rect><g><rect x="95.68" y="239.97" style="fill:#4B3F4E;" width="136.27" height="24.05"></rect><rect x="95.68" y="288.06" style="fill:#4B3F4E;" width="136.27" height="24.05"></rect></g><path d="M495.968,207.387h8.532c4.142,0,7.5-3.357,7.5-7.5V71.629c0-4.143-3.358-7.5-7.5-7.5h-56.629V47.581 c0-8.556-6.96-15.517-15.516-15.517H280.048c-8.556,0-15.516,6.961-15.516,15.517v16.548h-17.064V47.581 c0-8.556-6.96-15.517-15.516-15.517H79.645c-8.556,0-15.516,6.961-15.516,15.517v16.548H7.5c-4.142,0-7.5,3.357-7.5,7.5v128.258 c0,4.143,3.358,7.5,7.5,7.5h8.532v257.549H7.5c-4.142,0-7.5,3.357-7.5,7.5s3.358,7.5,7.5,7.5h497c4.142,0,7.5-3.357,7.5-7.5 s-3.358-7.5-7.5-7.5h-8.532V207.387z M335.645,144.29v-41.112h41.113v41.112H335.645z M280.048,144.29 c-0.285,0-0.516-0.231-0.516-0.516v-40.597h41.113v41.112h-40.597V144.29z M335.645,88.178V47.064h41.113v41.113L335.645,88.178 L335.645,88.178z M391.758,103.178h41.113v40.597c0,0.284-0.231,0.516-0.516,0.516h-40.597V103.178z M432.871,47.581v40.597h-41.113 V47.064h40.597C432.64,47.064,432.871,47.296,432.871,47.581z M280.048,47.064h40.597v41.113h-41.113V47.581 C279.532,47.296,279.764,47.064,280.048,47.064z M264.532,79.129v49.129h-17.064V79.129H264.532z M135.241,144.29v-41.112h41.113 v41.112H135.241z M79.645,144.29c-0.285,0-0.516-0.231-0.516-0.516v-40.597h41.112v41.112H79.645V144.29z M135.241,88.178V47.064 h41.113v41.113L135.241,88.178L135.241,88.178z M191.354,103.178h41.113v40.597c0,0.284-0.231,0.516-0.516,0.516h-40.597V103.178z M232.468,47.581v40.597h-41.113V47.064h40.597C232.236,47.064,232.468,47.296,232.468,47.581z M79.645,47.064h40.596v41.113H79.129 V47.581C79.129,47.296,79.36,47.064,79.645,47.064z M31.032,464.936v-49.129h385.292c4.142,0,7.5-3.357,7.5-7.5s-3.358-7.5-7.5-7.5 H31.032v-193.42h24.567c4.142,0,7.5-3.357,7.5-7.5s-3.358-7.5-7.5-7.5H15V79.129h49.129v64.646c0,8.556,6.96,15.516,15.516,15.516 h152.307c8.556,0,15.516-6.96,15.516-15.516v-0.517h17.064v0.517c0,8.556,6.96,15.516,15.516,15.516h152.307 c8.556,0,15.516-6.96,15.516-15.516V79.129H497v113.258H87.658c-4.142,0-7.5,3.357-7.5,7.5s3.358,7.5,7.5,7.5h393.31v193.42h-32.581 c-4.142,0-7.5,3.357-7.5,7.5s3.358,7.5,7.5,7.5h32.581v49.129H31.032z"></path><path d="M231.952,232.468H95.677c-4.142,0-7.5,3.357-7.5,7.5v136.274c0,4.143,3.358,7.5,7.5,7.5h136.274c4.142,0,7.5-3.357,7.5-7.5 V239.968C239.452,235.825,236.094,232.468,231.952,232.468z M224.452,247.468v33.097H103.177v-33.097H224.452z M103.177,368.742 v-73.178h121.274v73.178H103.177z"></path><path d="M416.323,232.468H280.048c-4.142,0-7.5,3.357-7.5,7.5v136.274c0,4.143,3.358,7.5,7.5,7.5h136.274c4.142,0,7.5-3.357,7.5-7.5 V239.968C423.823,235.825,420.465,232.468,416.323,232.468z M408.823,247.468v33.097H287.548v-33.097H408.823z M287.548,368.742 v-73.178h121.274v73.178H287.548z"></path></svg>